<?xml version="1.0" encoding="utf-8" standalone="no"?>
<!DOCTYPE svg PUBLIC "-//W3C//DTD SVG 1.1//EN"
  "http://www.w3.org/Graphics/SVG/1.1/DTD/svg11.dtd">
<svg xmlns:xlink="http://www.w3.org/1999/xlink" width="591.403125pt" height="571.078125pt" viewBox="0 0 591.403125 571.078125" xmlns="http://www.w3.org/2000/svg" version="1.1">
 <metadata>
  <rdf:RDF xmlns:dc="http://purl.org/dc/elements/1.1/" xmlns:cc="http://creativecommons.org/ns#" xmlns:rdf="http://www.w3.org/1999/02/22-rdf-syntax-ns#">
   <cc:Work>
    <dc:type rdf:resource="http://purl.org/dc/dcmitype/StillImage"/>
    <dc:date>2024-04-11T10:16:26.872818</dc:date>
    <dc:format>image/svg+xml</dc:format>
    <dc:creator>
     <cc:Agent>
      <dc:title>Matplotlib v3.8.3, https://matplotlib.org/</dc:title>
     </cc:Agent>
    </dc:creator>
   </cc:Work>
  </rdf:RDF>
 </metadata>
 <defs>
  <style type="text/css">*{stroke-linejoin: round; stroke-linecap: butt}</style>
 </defs>
 <g id="figure_1">
  <g id="patch_1">
   <path d="M 0 571.078125 
L 591.403125 571.078125 
L 591.403125 0 
L 0 0 
z
" style="fill: #ffffff"/>
  </g>
  <g id="axes_1">
   <g id="patch_2">
    <path d="M 33.403125 554.4 
L 591.403125 554.4 
L 591.403125 0 
L 33.403125 0 
z
" style="fill: #ffffff"/>
   </g>
   <g id="matplotlib.axis_1">
    <g id="xtick_1">
     <g id="line2d_1">
      <defs>
       <path id="m6b30895a29" d="M 0 0 
L 0 3.5 
" style="stroke: #000000; stroke-width: 0.8"/>
      </defs>
      <g>
       <use xlink:href="#m6b30895a29" x="126.403125" y="554.4" style="stroke: #000000; stroke-width: 0.8"/>
      </g>
     </g>
     <g id="text_1">
      <!-- Min -->
      <g transform="translate(117.53125 568.998438) scale(0.1 -0.1)">
       <defs>
        <path id="DejaVuSans-4d" d="M 628 4666 
L 1569 4666 
L 2759 1491 
L 3956 4666 
L 4897 4666 
L 4897 0 
L 4281 0 
L 4281 4097 
L 3078 897 
L 2444 897 
L 1241 4097 
L 1241 0 
L 628 0 
L 628 4666 
z
" transform="scale(0.015625)"/>
        <path id="DejaVuSans-69" d="M 603 3500 
L 1178 3500 
L 1178 0 
L 603 0 
L 603 3500 
z
M 603 4863 
L 1178 4863 
L 1178 4134 
L 603 4134 
L 603 4863 
z
" transform="scale(0.015625)"/>
        <path id="DejaVuSans-6e" d="M 3513 2113 
L 3513 0 
L 2938 0 
L 2938 2094 
Q 2938 2591 2744 2837 
Q 2550 3084 2163 3084 
Q 1697 3084 1428 2787 
Q 1159 2491 1159 1978 
L 1159 0 
L 581 0 
L 581 3500 
L 1159 3500 
L 1159 2956 
Q 1366 3272 1645 3428 
Q 1925 3584 2291 3584 
Q 2894 3584 3203 3211 
Q 3513 2838 3513 2113 
z
" transform="scale(0.015625)"/>
       </defs>
       <use xlink:href="#DejaVuSans-4d"/>
       <use xlink:href="#DejaVuSans-69" x="86.279297"/>
       <use xlink:href="#DejaVuSans-6e" x="114.0625"/>
      </g>
     </g>
    </g>
    <g id="xtick_2">
     <g id="line2d_2">
      <g>
       <use xlink:href="#m6b30895a29" x="312.403125" y="554.4" style="stroke: #000000; stroke-width: 0.8"/>
      </g>
     </g>
     <g id="text_2">
      <!-- Mean -->
      <g transform="translate(298.779687 568.998438) scale(0.1 -0.1)">
       <defs>
        <path id="DejaVuSans-65" d="M 3597 1894 
L 3597 1613 
L 953 1613 
Q 991 1019 1311 708 
Q 1631 397 2203 397 
Q 2534 397 2845 478 
Q 3156 559 3463 722 
L 3463 178 
Q 3153 47 2828 -22 
Q 2503 -91 2169 -91 
Q 1331 -91 842 396 
Q 353 884 353 1716 
Q 353 2575 817 3079 
Q 1281 3584 2069 3584 
Q 2775 3584 3186 3129 
Q 3597 2675 3597 1894 
z
M 3022 2063 
Q 3016 2534 2758 2815 
Q 2500 3097 2075 3097 
Q 1594 3097 1305 2825 
Q 1016 2553 972 2059 
L 3022 2063 
z
" transform="scale(0.015625)"/>
        <path id="DejaVuSans-61" d="M 2194 1759 
Q 1497 1759 1228 1600 
Q 959 1441 959 1056 
Q 959 750 1161 570 
Q 1363 391 1709 391 
Q 2188 391 2477 730 
Q 2766 1069 2766 1631 
L 2766 1759 
L 2194 1759 
z
M 3341 1997 
L 3341 0 
L 2766 0 
L 2766 531 
Q 2569 213 2275 61 
Q 1981 -91 1556 -91 
Q 1019 -91 701 211 
Q 384 513 384 1019 
Q 384 1609 779 1909 
Q 1175 2209 1959 2209 
L 2766 2209 
L 2766 2266 
Q 2766 2663 2505 2880 
Q 2244 3097 1772 3097 
Q 1472 3097 1187 3025 
Q 903 2953 641 2809 
L 641 3341 
Q 956 3463 1253 3523 
Q 1550 3584 1831 3584 
Q 2591 3584 2966 3190 
Q 3341 2797 3341 1997 
z
" transform="scale(0.015625)"/>
       </defs>
       <use xlink:href="#DejaVuSans-4d"/>
       <use xlink:href="#DejaVuSans-65" x="86.279297"/>
       <use xlink:href="#DejaVuSans-61" x="147.802734"/>
       <use xlink:href="#DejaVuSans-6e" x="209.082031"/>
      </g>
     </g>
    </g>
    <g id="xtick_3">
     <g id="line2d_3">
      <g>
       <use xlink:href="#m6b30895a29" x="498.403125" y="554.4" style="stroke: #000000; stroke-width: 0.8"/>
      </g>
     </g>
     <g id="text_3">
      <!-- Max -->
      <g transform="translate(488.065625 568.998438) scale(0.1 -0.1)">
       <defs>
        <path id="DejaVuSans-78" d="M 3513 3500 
L 2247 1797 
L 3578 0 
L 2900 0 
L 1881 1375 
L 863 0 
L 184 0 
L 1544 1831 
L 300 3500 
L 978 3500 
L 1906 2253 
L 2834 3500 
L 3513 3500 
z
" transform="scale(0.015625)"/>
       </defs>
       <use xlink:href="#DejaVuSans-4d"/>
       <use xlink:href="#DejaVuSans-61" x="86.279297"/>
       <use xlink:href="#DejaVuSans-78" x="147.558594"/>
      </g>
     </g>
    </g>
   </g>
   <g id="matplotlib.axis_2">
    <g id="ytick_1">
     <g id="line2d_4">
      <defs>
       <path id="m099d3ecb9e" d="M 0 0 
L -3.5 0 
" style="stroke: #000000; stroke-width: 0.8"/>
      </defs>
      <g>
       <use xlink:href="#m099d3ecb9e" x="33.403125" y="529.2" style="stroke: #000000; stroke-width: 0.8"/>
      </g>
     </g>
     <g id="text_4">
      <!-- 0 -->
      <g transform="translate(20.040625 532.999219) scale(0.1 -0.1)">
       <defs>
        <path id="DejaVuSans-30" d="M 2034 4250 
Q 1547 4250 1301 3770 
Q 1056 3291 1056 2328 
Q 1056 1369 1301 889 
Q 1547 409 2034 409 
Q 2525 409 2770 889 
Q 3016 1369 3016 2328 
Q 3016 3291 2770 3770 
Q 2525 4250 2034 4250 
z
M 2034 4750 
Q 2819 4750 3233 4129 
Q 3647 3509 3647 2328 
Q 3647 1150 3233 529 
Q 2819 -91 2034 -91 
Q 1250 -91 836 529 
Q 422 1150 422 2328 
Q 422 3509 836 4129 
Q 1250 4750 2034 4750 
z
" transform="scale(0.015625)"/>
       </defs>
       <use xlink:href="#DejaVuSans-30"/>
      </g>
     </g>
    </g>
    <g id="ytick_2">
     <g id="line2d_5">
      <g>
       <use xlink:href="#m099d3ecb9e" x="33.403125" y="416.922772" style="stroke: #000000; stroke-width: 0.8"/>
      </g>
     </g>
     <g id="text_5">
      <!-- 5 -->
      <g transform="translate(20.040625 420.721991) scale(0.1 -0.1)">
       <defs>
        <path id="DejaVuSans-35" d="M 691 4666 
L 3169 4666 
L 3169 4134 
L 1269 4134 
L 1269 2991 
Q 1406 3038 1543 3061 
Q 1681 3084 1819 3084 
Q 2600 3084 3056 2656 
Q 3513 2228 3513 1497 
Q 3513 744 3044 326 
Q 2575 -91 1722 -91 
Q 1428 -91 1123 -41 
Q 819 9 494 109 
L 494 744 
Q 775 591 1075 516 
Q 1375 441 1709 441 
Q 2250 441 2565 725 
Q 2881 1009 2881 1497 
Q 2881 1984 2565 2268 
Q 2250 2553 1709 2553 
Q 1456 2553 1204 2497 
Q 953 2441 691 2322 
L 691 4666 
z
" transform="scale(0.015625)"/>
       </defs>
       <use xlink:href="#DejaVuSans-35"/>
      </g>
     </g>
    </g>
    <g id="ytick_3">
     <g id="line2d_6">
      <g>
       <use xlink:href="#m099d3ecb9e" x="33.403125" y="304.645545" style="stroke: #000000; stroke-width: 0.8"/>
      </g>
     </g>
     <g id="text_6">
      <!-- 10 -->
      <g transform="translate(13.678125 308.444763) scale(0.1 -0.1)">
       <defs>
        <path id="DejaVuSans-31" d="M 794 531 
L 1825 531 
L 1825 4091 
L 703 3866 
L 703 4441 
L 1819 4666 
L 2450 4666 
L 2450 531 
L 3481 531 
L 3481 0 
L 794 0 
L 794 531 
z
" transform="scale(0.015625)"/>
       </defs>
       <use xlink:href="#DejaVuSans-31"/>
       <use xlink:href="#DejaVuSans-30" x="63.623047"/>
      </g>
     </g>
    </g>
    <g id="ytick_4">
     <g id="line2d_7">
      <g>
       <use xlink:href="#m099d3ecb9e" x="33.403125" y="192.368317" style="stroke: #000000; stroke-width: 0.8"/>
      </g>
     </g>
     <g id="text_7">
      <!-- 15 -->
      <g transform="translate(13.678125 196.167536) scale(0.1 -0.1)">
       <use xlink:href="#DejaVuSans-31"/>
       <use xlink:href="#DejaVuSans-35" x="63.623047"/>
      </g>
     </g>
    </g>
    <g id="ytick_5">
     <g id="line2d_8">
      <g>
       <use xlink:href="#m099d3ecb9e" x="33.403125" y="80.091089" style="stroke: #000000; stroke-width: 0.8"/>
      </g>
     </g>
     <g id="text_8">
      <!-- 20 -->
      <g transform="translate(13.678125 83.890308) scale(0.1 -0.1)">
       <defs>
        <path id="DejaVuSans-32" d="M 1228 531 
L 3431 531 
L 3431 0 
L 469 0 
L 469 531 
Q 828 903 1448 1529 
Q 2069 2156 2228 2338 
Q 2531 2678 2651 2914 
Q 2772 3150 2772 3378 
Q 2772 3750 2511 3984 
Q 2250 4219 1831 4219 
Q 1534 4219 1204 4116 
Q 875 4013 500 3803 
L 500 4441 
Q 881 4594 1212 4672 
Q 1544 4750 1819 4750 
Q 2544 4750 2975 4387 
Q 3406 4025 3406 3419 
Q 3406 3131 3298 2873 
Q 3191 2616 2906 2266 
Q 2828 2175 2409 1742 
Q 1991 1309 1228 531 
z
" transform="scale(0.015625)"/>
       </defs>
       <use xlink:href="#DejaVuSans-32"/>
       <use xlink:href="#DejaVuSans-30" x="63.623047"/>
      </g>
     </g>
    </g>
    <g id="text_9">
     <!-- McCabe Complexity -->
     <g transform="translate(7.598437 326.9) rotate(-90) scale(0.1 -0.1)">
      <defs>
       <path id="DejaVuSans-63" d="M 3122 3366 
L 3122 2828 
Q 2878 2963 2633 3030 
Q 2388 3097 2138 3097 
Q 1578 3097 1268 2742 
Q 959 2388 959 1747 
Q 959 1106 1268 751 
Q 1578 397 2138 397 
Q 2388 397 2633 464 
Q 2878 531 3122 666 
L 3122 134 
Q 2881 22 2623 -34 
Q 2366 -91 2075 -91 
Q 1284 -91 818 406 
Q 353 903 353 1747 
Q 353 2603 823 3093 
Q 1294 3584 2113 3584 
Q 2378 3584 2631 3529 
Q 2884 3475 3122 3366 
z
" transform="scale(0.015625)"/>
       <path id="DejaVuSans-43" d="M 4122 4306 
L 4122 3641 
Q 3803 3938 3442 4084 
Q 3081 4231 2675 4231 
Q 1875 4231 1450 3742 
Q 1025 3253 1025 2328 
Q 1025 1406 1450 917 
Q 1875 428 2675 428 
Q 3081 428 3442 575 
Q 3803 722 4122 1019 
L 4122 359 
Q 3791 134 3420 21 
Q 3050 -91 2638 -91 
Q 1578 -91 968 557 
Q 359 1206 359 2328 
Q 359 3453 968 4101 
Q 1578 4750 2638 4750 
Q 3056 4750 3426 4639 
Q 3797 4528 4122 4306 
z
" transform="scale(0.015625)"/>
       <path id="DejaVuSans-62" d="M 3116 1747 
Q 3116 2381 2855 2742 
Q 2594 3103 2138 3103 
Q 1681 3103 1420 2742 
Q 1159 2381 1159 1747 
Q 1159 1113 1420 752 
Q 1681 391 2138 391 
Q 2594 391 2855 752 
Q 3116 1113 3116 1747 
z
M 1159 2969 
Q 1341 3281 1617 3432 
Q 1894 3584 2278 3584 
Q 2916 3584 3314 3078 
Q 3713 2572 3713 1747 
Q 3713 922 3314 415 
Q 2916 -91 2278 -91 
Q 1894 -91 1617 61 
Q 1341 213 1159 525 
L 1159 0 
L 581 0 
L 581 4863 
L 1159 4863 
L 1159 2969 
z
" transform="scale(0.015625)"/>
       <path id="DejaVuSans-20" transform="scale(0.015625)"/>
       <path id="DejaVuSans-6f" d="M 1959 3097 
Q 1497 3097 1228 2736 
Q 959 2375 959 1747 
Q 959 1119 1226 758 
Q 1494 397 1959 397 
Q 2419 397 2687 759 
Q 2956 1122 2956 1747 
Q 2956 2369 2687 2733 
Q 2419 3097 1959 3097 
z
M 1959 3584 
Q 2709 3584 3137 3096 
Q 3566 2609 3566 1747 
Q 3566 888 3137 398 
Q 2709 -91 1959 -91 
Q 1206 -91 779 398 
Q 353 888 353 1747 
Q 353 2609 779 3096 
Q 1206 3584 1959 3584 
z
" transform="scale(0.015625)"/>
       <path id="DejaVuSans-6d" d="M 3328 2828 
Q 3544 3216 3844 3400 
Q 4144 3584 4550 3584 
Q 5097 3584 5394 3201 
Q 5691 2819 5691 2113 
L 5691 0 
L 5113 0 
L 5113 2094 
Q 5113 2597 4934 2840 
Q 4756 3084 4391 3084 
Q 3944 3084 3684 2787 
Q 3425 2491 3425 1978 
L 3425 0 
L 2847 0 
L 2847 2094 
Q 2847 2600 2669 2842 
Q 2491 3084 2119 3084 
Q 1678 3084 1418 2786 
Q 1159 2488 1159 1978 
L 1159 0 
L 581 0 
L 581 3500 
L 1159 3500 
L 1159 2956 
Q 1356 3278 1631 3431 
Q 1906 3584 2284 3584 
Q 2666 3584 2933 3390 
Q 3200 3197 3328 2828 
z
" transform="scale(0.015625)"/>
       <path id="DejaVuSans-70" d="M 1159 525 
L 1159 -1331 
L 581 -1331 
L 581 3500 
L 1159 3500 
L 1159 2969 
Q 1341 3281 1617 3432 
Q 1894 3584 2278 3584 
Q 2916 3584 3314 3078 
Q 3713 2572 3713 1747 
Q 3713 922 3314 415 
Q 2916 -91 2278 -91 
Q 1894 -91 1617 61 
Q 1341 213 1159 525 
z
M 3116 1747 
Q 3116 2381 2855 2742 
Q 2594 3103 2138 3103 
Q 1681 3103 1420 2742 
Q 1159 2381 1159 1747 
Q 1159 1113 1420 752 
Q 1681 391 2138 391 
Q 2594 391 2855 752 
Q 3116 1113 3116 1747 
z
" transform="scale(0.015625)"/>
       <path id="DejaVuSans-6c" d="M 603 4863 
L 1178 4863 
L 1178 0 
L 603 0 
L 603 4863 
z
" transform="scale(0.015625)"/>
       <path id="DejaVuSans-74" d="M 1172 4494 
L 1172 3500 
L 2356 3500 
L 2356 3053 
L 1172 3053 
L 1172 1153 
Q 1172 725 1289 603 
Q 1406 481 1766 481 
L 2356 481 
L 2356 0 
L 1766 0 
Q 1100 0 847 248 
Q 594 497 594 1153 
L 594 3053 
L 172 3053 
L 172 3500 
L 594 3500 
L 594 4494 
L 1172 4494 
z
" transform="scale(0.015625)"/>
       <path id="DejaVuSans-79" d="M 2059 -325 
Q 1816 -950 1584 -1140 
Q 1353 -1331 966 -1331 
L 506 -1331 
L 506 -850 
L 844 -850 
Q 1081 -850 1212 -737 
Q 1344 -625 1503 -206 
L 1606 56 
L 191 3500 
L 800 3500 
L 1894 763 
L 2988 3500 
L 3597 3500 
L 2059 -325 
z
" transform="scale(0.015625)"/>
      </defs>
      <use xlink:href="#DejaVuSans-4d"/>
      <use xlink:href="#DejaVuSans-63" x="86.279297"/>
      <use xlink:href="#DejaVuSans-43" x="141.259766"/>
      <use xlink:href="#DejaVuSans-61" x="211.083984"/>
      <use xlink:href="#DejaVuSans-62" x="272.363281"/>
      <use xlink:href="#DejaVuSans-65" x="335.839844"/>
      <use xlink:href="#DejaVuSans-20" x="397.363281"/>
      <use xlink:href="#DejaVuSans-43" x="429.150391"/>
      <use xlink:href="#DejaVuSans-6f" x="498.974609"/>
      <use xlink:href="#DejaVuSans-6d" x="560.15625"/>
      <use xlink:href="#DejaVuSans-70" x="657.568359"/>
      <use xlink:href="#DejaVuSans-6c" x="721.044922"/>
      <use xlink:href="#DejaVuSans-65" x="748.828125"/>
      <use xlink:href="#DejaVuSans-78" x="808.601562"/>
      <use xlink:href="#DejaVuSans-69" x="867.78125"/>
      <use xlink:href="#DejaVuSans-74" x="895.564453"/>
      <use xlink:href="#DejaVuSans-79" x="934.773438"/>
     </g>
    </g>
   </g>
   <g id="patch_3">
    <path d="M 52.003125 449.982178 
L 200.803125 449.982178 
L 200.803125 405.354815 
L 52.003125 405.354815 
L 52.003125 449.982178 
z
" clip-path="url(#pa1832b38a5)" style="fill: #3274a1; stroke: #3d3d3d; stroke-linejoin: miter"/>
   </g>
   <g id="line2d_9">
    <path d="M 126.403125 449.982178 
L 126.403125 476.80396 
" clip-path="url(#pa1832b38a5)" style="fill: none; stroke: #3d3d3d"/>
   </g>
   <g id="line2d_10">
    <path d="M 126.403125 405.354815 
L 126.403125 347.913354 
" clip-path="url(#pa1832b38a5)" style="fill: none; stroke: #3d3d3d"/>
   </g>
   <g id="line2d_11">
    <path d="M 89.203125 476.80396 
L 163.603125 476.80396 
" clip-path="url(#pa1832b38a5)" style="fill: none; stroke: #3d3d3d; stroke-linecap: square"/>
   </g>
   <g id="line2d_12">
    <path d="M 89.203125 347.913354 
L 163.603125 347.913354 
" clip-path="url(#pa1832b38a5)" style="fill: none; stroke: #3d3d3d; stroke-linecap: square"/>
   </g>
   <g id="line2d_13">
    <defs>
     <path id="m55e5dfaa0e" d="M 0 3 
C 0.795609 3 1.55874 2.683901 2.12132 2.12132 
C 2.683901 1.55874 3 0.795609 3 0 
C 3 -0.795609 2.683901 -1.55874 2.12132 -2.12132 
C 1.55874 -2.683901 0.795609 -3 0 -3 
C -0.795609 -3 -1.55874 -2.683901 -2.12132 -2.12132 
C -2.683901 -1.55874 -3 -0.795609 -3 0 
C -3 0.795609 -2.683901 1.55874 -2.12132 2.12132 
C -1.55874 2.683901 -0.795609 3 0 3 
z
" style="stroke: #3d3d3d"/>
    </defs>
    <g clip-path="url(#pa1832b38a5)">
     <use xlink:href="#m55e5dfaa0e" x="126.403125" y="529.2" style="fill-opacity: 0; stroke: #3d3d3d"/>
     <use xlink:href="#m55e5dfaa0e" x="126.403125" y="529.2" style="fill-opacity: 0; stroke: #3d3d3d"/>
     <use xlink:href="#m55e5dfaa0e" x="126.403125" y="529.2" style="fill-opacity: 0; stroke: #3d3d3d"/>
     <use xlink:href="#m55e5dfaa0e" x="126.403125" y="529.2" style="fill-opacity: 0; stroke: #3d3d3d"/>
     <use xlink:href="#m55e5dfaa0e" x="126.403125" y="529.2" style="fill-opacity: 0; stroke: #3d3d3d"/>
     <use xlink:href="#m55e5dfaa0e" x="126.403125" y="529.2" style="fill-opacity: 0; stroke: #3d3d3d"/>
     <use xlink:href="#m55e5dfaa0e" x="126.403125" y="278.349036" style="fill-opacity: 0; stroke: #3d3d3d"/>
     <use xlink:href="#m55e5dfaa0e" x="126.403125" y="268.716832" style="fill-opacity: 0; stroke: #3d3d3d"/>
     <use xlink:href="#m55e5dfaa0e" x="126.403125" y="309.136634" style="fill-opacity: 0; stroke: #3d3d3d"/>
     <use xlink:href="#m55e5dfaa0e" x="126.403125" y="180.691485" style="fill-opacity: 0; stroke: #3d3d3d"/>
    </g>
   </g>
   <g id="patch_4">
    <path d="M 238.003125 435.812599 
L 386.803125 435.812599 
L 386.803125 395.916065 
L 238.003125 395.916065 
L 238.003125 435.812599 
z
" clip-path="url(#pa1832b38a5)" style="fill: #e1812c; stroke: #3d3d3d; stroke-linejoin: miter"/>
   </g>
   <g id="line2d_14">
    <path d="M 312.403125 435.812599 
L 312.403125 466.825656 
" clip-path="url(#pa1832b38a5)" style="fill: none; stroke: #3d3d3d"/>
   </g>
   <g id="line2d_15">
    <path d="M 312.403125 395.916065 
L 312.403125 346.023376 
" clip-path="url(#pa1832b38a5)" style="fill: none; stroke: #3d3d3d"/>
   </g>
   <g id="line2d_16">
    <path d="M 275.203125 466.825656 
L 349.603125 466.825656 
" clip-path="url(#pa1832b38a5)" style="fill: none; stroke: #3d3d3d; stroke-linecap: square"/>
   </g>
   <g id="line2d_17">
    <path d="M 275.203125 346.023376 
L 349.603125 346.023376 
" clip-path="url(#pa1832b38a5)" style="fill: none; stroke: #3d3d3d; stroke-linecap: square"/>
   </g>
   <g id="line2d_18">
    <g clip-path="url(#pa1832b38a5)">
     <use xlink:href="#m55e5dfaa0e" x="312.403125" y="529.2" style="fill-opacity: 0; stroke: #3d3d3d"/>
     <use xlink:href="#m55e5dfaa0e" x="312.403125" y="276.480158" style="fill-opacity: 0; stroke: #3d3d3d"/>
     <use xlink:href="#m55e5dfaa0e" x="312.403125" y="331.203102" style="fill-opacity: 0; stroke: #3d3d3d"/>
     <use xlink:href="#m55e5dfaa0e" x="312.403125" y="252.879819" style="fill-opacity: 0; stroke: #3d3d3d"/>
     <use xlink:href="#m55e5dfaa0e" x="312.403125" y="268.065949" style="fill-opacity: 0; stroke: #3d3d3d"/>
     <use xlink:href="#m55e5dfaa0e" x="312.403125" y="309.136634" style="fill-opacity: 0; stroke: #3d3d3d"/>
     <use xlink:href="#m55e5dfaa0e" x="312.403125" y="180.691485" style="fill-opacity: 0; stroke: #3d3d3d"/>
    </g>
   </g>
   <g id="patch_5">
    <path d="M 424.003125 430.929073 
L 572.803125 430.929073 
L 572.803125 382.965757 
L 424.003125 382.965757 
L 424.003125 430.929073 
z
" clip-path="url(#pa1832b38a5)" style="fill: #3a923a; stroke: #3d3d3d; stroke-linejoin: miter"/>
   </g>
   <g id="line2d_19">
    <path d="M 498.403125 430.929073 
L 498.403125 464.827723 
" clip-path="url(#pa1832b38a5)" style="fill: none; stroke: #3d3d3d"/>
   </g>
   <g id="line2d_20">
    <path d="M 498.403125 382.965757 
L 498.403125 325.58714 
" clip-path="url(#pa1832b38a5)" style="fill: none; stroke: #3d3d3d"/>
   </g>
   <g id="line2d_21">
    <path d="M 461.203125 464.827723 
L 535.603125 464.827723 
" clip-path="url(#pa1832b38a5)" style="fill: none; stroke: #3d3d3d; stroke-linecap: square"/>
   </g>
   <g id="line2d_22">
    <path d="M 461.203125 325.58714 
L 535.603125 325.58714 
" clip-path="url(#pa1832b38a5)" style="fill: none; stroke: #3d3d3d; stroke-linecap: square"/>
   </g>
   <g id="line2d_23">
    <g clip-path="url(#pa1832b38a5)">
     <use xlink:href="#m55e5dfaa0e" x="498.403125" y="529.2" style="fill-opacity: 0; stroke: #3d3d3d"/>
     <use xlink:href="#m55e5dfaa0e" x="498.403125" y="274.95613" style="fill-opacity: 0; stroke: #3d3d3d"/>
     <use xlink:href="#m55e5dfaa0e" x="498.403125" y="25.2" style="fill-opacity: 0; stroke: #3d3d3d"/>
     <use xlink:href="#m55e5dfaa0e" x="498.403125" y="234.584554" style="fill-opacity: 0; stroke: #3d3d3d"/>
     <use xlink:href="#m55e5dfaa0e" x="498.403125" y="267.219802" style="fill-opacity: 0; stroke: #3d3d3d"/>
     <use xlink:href="#m55e5dfaa0e" x="498.403125" y="309.136634" style="fill-opacity: 0; stroke: #3d3d3d"/>
     <use xlink:href="#m55e5dfaa0e" x="498.403125" y="180.691485" style="fill-opacity: 0; stroke: #3d3d3d"/>
    </g>
   </g>
   <g id="line2d_24">
    <path d="M 52.003125 428.150495 
L 200.803125 428.150495 
" clip-path="url(#pa1832b38a5)" style="fill: none; stroke: #3d3d3d"/>
   </g>
   <g id="line2d_25">
    <path d="M 238.003125 416.458514 
L 386.803125 416.458514 
" clip-path="url(#pa1832b38a5)" style="fill: none; stroke: #3d3d3d"/>
   </g>
   <g id="line2d_26">
    <path d="M 424.003125 408.08143 
L 572.803125 408.08143 
" clip-path="url(#pa1832b38a5)" style="fill: none; stroke: #3d3d3d"/>
   </g>
   <g id="patch_6">
    <path d="M 33.403125 554.4 
L 33.403125 0 
" style="fill: none; stroke: #000000; stroke-width: 0.8; stroke-linejoin: miter; stroke-linecap: square"/>
   </g>
   <g id="patch_7">
    <path d="M 591.403125 554.4 
L 591.403125 0 
" style="fill: none; stroke: #000000; stroke-width: 0.8; stroke-linejoin: miter; stroke-linecap: square"/>
   </g>
   <g id="patch_8">
    <path d="M 33.403125 554.4 
L 591.403125 554.4 
" style="fill: none; stroke: #000000; stroke-width: 0.8; stroke-linejoin: miter; stroke-linecap: square"/>
   </g>
   <g id="patch_9">
    <path d="M 33.403125 0 
L 591.403125 0 
" style="fill: none; stroke: #000000; stroke-width: 0.8; stroke-linejoin: miter; stroke-linecap: square"/>
   </g>
  </g>
 </g>
 <defs>
  <clipPath id="pa1832b38a5">
   <rect x="33.403125" y="0" width="558" height="554.4"/>
  </clipPath>
 </defs>
</svg>
