<?xml version="1.0" encoding="utf-8" standalone="no"?>
<!DOCTYPE svg PUBLIC "-//W3C//DTD SVG 1.1//EN"
  "http://www.w3.org/Graphics/SVG/1.1/DTD/svg11.dtd">
<svg xmlns:xlink="http://www.w3.org/1999/xlink" width="698.158125pt" height="697.998125pt" viewBox="0 0 698.158125 697.998125" xmlns="http://www.w3.org/2000/svg" version="1.1">
 <metadata>
  <rdf:RDF xmlns:dc="http://purl.org/dc/elements/1.1/" xmlns:cc="http://creativecommons.org/ns#" xmlns:rdf="http://www.w3.org/1999/02/22-rdf-syntax-ns#">
   <cc:Work>
    <dc:type rdf:resource="http://purl.org/dc/dcmitype/StillImage"/>
    <dc:date>2024-04-11T13:25:37.341273</dc:date>
    <dc:format>image/svg+xml</dc:format>
    <dc:creator>
     <cc:Agent>
      <dc:title>Matplotlib v3.8.3, https://matplotlib.org/</dc:title>
     </cc:Agent>
    </dc:creator>
   </cc:Work>
  </rdf:RDF>
 </metadata>
 <defs>
  <style type="text/css">*{stroke-linejoin: round; stroke-linecap: butt}</style>
 </defs>
 <g id="figure_1">
  <g id="patch_1">
   <path d="M 0 697.998125 
L 698.158125 697.998125 
L 698.158125 0 
L 0 0 
z
" style="fill: #ffffff"/>
  </g>
  <g id="axes_1">
   <g id="patch_2">
    <path d="M 46.128125 681.32 
L 698.158125 681.32 
L 698.158125 0 
L 46.128125 0 
z
" style="fill: #ffffff"/>
   </g>
   <g id="matplotlib.axis_1">
    <g id="xtick_1">
     <g id="line2d_1">
      <defs>
       <path id="m517157a880" d="M 0 0 
L 0 3.5 
" style="stroke: #000000; stroke-width: 0.8"/>
      </defs>
      <g>
       <use xlink:href="#m517157a880" x="127.631875" y="681.32" style="stroke: #000000; stroke-width: 0.8"/>
      </g>
     </g>
     <g id="text_1">
      <!-- Undocumented Functions -->
      <g transform="translate(63.867031 695.918438) scale(0.1 -0.1)">
       <defs>
        <path id="DejaVuSans-55" d="M 556 4666 
L 1191 4666 
L 1191 1831 
Q 1191 1081 1462 751 
Q 1734 422 2344 422 
Q 2950 422 3222 751 
Q 3494 1081 3494 1831 
L 3494 4666 
L 4128 4666 
L 4128 1753 
Q 4128 841 3676 375 
Q 3225 -91 2344 -91 
Q 1459 -91 1007 375 
Q 556 841 556 1753 
L 556 4666 
z
" transform="scale(0.015625)"/>
        <path id="DejaVuSans-6e" d="M 3513 2113 
L 3513 0 
L 2938 0 
L 2938 2094 
Q 2938 2591 2744 2837 
Q 2550 3084 2163 3084 
Q 1697 3084 1428 2787 
Q 1159 2491 1159 1978 
L 1159 0 
L 581 0 
L 581 3500 
L 1159 3500 
L 1159 2956 
Q 1366 3272 1645 3428 
Q 1925 3584 2291 3584 
Q 2894 3584 3203 3211 
Q 3513 2838 3513 2113 
z
" transform="scale(0.015625)"/>
        <path id="DejaVuSans-64" d="M 2906 2969 
L 2906 4863 
L 3481 4863 
L 3481 0 
L 2906 0 
L 2906 525 
Q 2725 213 2448 61 
Q 2172 -91 1784 -91 
Q 1150 -91 751 415 
Q 353 922 353 1747 
Q 353 2572 751 3078 
Q 1150 3584 1784 3584 
Q 2172 3584 2448 3432 
Q 2725 3281 2906 2969 
z
M 947 1747 
Q 947 1113 1208 752 
Q 1469 391 1925 391 
Q 2381 391 2643 752 
Q 2906 1113 2906 1747 
Q 2906 2381 2643 2742 
Q 2381 3103 1925 3103 
Q 1469 3103 1208 2742 
Q 947 2381 947 1747 
z
" transform="scale(0.015625)"/>
        <path id="DejaVuSans-6f" d="M 1959 3097 
Q 1497 3097 1228 2736 
Q 959 2375 959 1747 
Q 959 1119 1226 758 
Q 1494 397 1959 397 
Q 2419 397 2687 759 
Q 2956 1122 2956 1747 
Q 2956 2369 2687 2733 
Q 2419 3097 1959 3097 
z
M 1959 3584 
Q 2709 3584 3137 3096 
Q 3566 2609 3566 1747 
Q 3566 888 3137 398 
Q 2709 -91 1959 -91 
Q 1206 -91 779 398 
Q 353 888 353 1747 
Q 353 2609 779 3096 
Q 1206 3584 1959 3584 
z
" transform="scale(0.015625)"/>
        <path id="DejaVuSans-63" d="M 3122 3366 
L 3122 2828 
Q 2878 2963 2633 3030 
Q 2388 3097 2138 3097 
Q 1578 3097 1268 2742 
Q 959 2388 959 1747 
Q 959 1106 1268 751 
Q 1578 397 2138 397 
Q 2388 397 2633 464 
Q 2878 531 3122 666 
L 3122 134 
Q 2881 22 2623 -34 
Q 2366 -91 2075 -91 
Q 1284 -91 818 406 
Q 353 903 353 1747 
Q 353 2603 823 3093 
Q 1294 3584 2113 3584 
Q 2378 3584 2631 3529 
Q 2884 3475 3122 3366 
z
" transform="scale(0.015625)"/>
        <path id="DejaVuSans-75" d="M 544 1381 
L 544 3500 
L 1119 3500 
L 1119 1403 
Q 1119 906 1312 657 
Q 1506 409 1894 409 
Q 2359 409 2629 706 
Q 2900 1003 2900 1516 
L 2900 3500 
L 3475 3500 
L 3475 0 
L 2900 0 
L 2900 538 
Q 2691 219 2414 64 
Q 2138 -91 1772 -91 
Q 1169 -91 856 284 
Q 544 659 544 1381 
z
M 1991 3584 
L 1991 3584 
z
" transform="scale(0.015625)"/>
        <path id="DejaVuSans-6d" d="M 3328 2828 
Q 3544 3216 3844 3400 
Q 4144 3584 4550 3584 
Q 5097 3584 5394 3201 
Q 5691 2819 5691 2113 
L 5691 0 
L 5113 0 
L 5113 2094 
Q 5113 2597 4934 2840 
Q 4756 3084 4391 3084 
Q 3944 3084 3684 2787 
Q 3425 2491 3425 1978 
L 3425 0 
L 2847 0 
L 2847 2094 
Q 2847 2600 2669 2842 
Q 2491 3084 2119 3084 
Q 1678 3084 1418 2786 
Q 1159 2488 1159 1978 
L 1159 0 
L 581 0 
L 581 3500 
L 1159 3500 
L 1159 2956 
Q 1356 3278 1631 3431 
Q 1906 3584 2284 3584 
Q 2666 3584 2933 3390 
Q 3200 3197 3328 2828 
z
" transform="scale(0.015625)"/>
        <path id="DejaVuSans-65" d="M 3597 1894 
L 3597 1613 
L 953 1613 
Q 991 1019 1311 708 
Q 1631 397 2203 397 
Q 2534 397 2845 478 
Q 3156 559 3463 722 
L 3463 178 
Q 3153 47 2828 -22 
Q 2503 -91 2169 -91 
Q 1331 -91 842 396 
Q 353 884 353 1716 
Q 353 2575 817 3079 
Q 1281 3584 2069 3584 
Q 2775 3584 3186 3129 
Q 3597 2675 3597 1894 
z
M 3022 2063 
Q 3016 2534 2758 2815 
Q 2500 3097 2075 3097 
Q 1594 3097 1305 2825 
Q 1016 2553 972 2059 
L 3022 2063 
z
" transform="scale(0.015625)"/>
        <path id="DejaVuSans-74" d="M 1172 4494 
L 1172 3500 
L 2356 3500 
L 2356 3053 
L 1172 3053 
L 1172 1153 
Q 1172 725 1289 603 
Q 1406 481 1766 481 
L 2356 481 
L 2356 0 
L 1766 0 
Q 1100 0 847 248 
Q 594 497 594 1153 
L 594 3053 
L 172 3053 
L 172 3500 
L 594 3500 
L 594 4494 
L 1172 4494 
z
" transform="scale(0.015625)"/>
        <path id="DejaVuSans-20" transform="scale(0.015625)"/>
        <path id="DejaVuSans-46" d="M 628 4666 
L 3309 4666 
L 3309 4134 
L 1259 4134 
L 1259 2759 
L 3109 2759 
L 3109 2228 
L 1259 2228 
L 1259 0 
L 628 0 
L 628 4666 
z
" transform="scale(0.015625)"/>
        <path id="DejaVuSans-69" d="M 603 3500 
L 1178 3500 
L 1178 0 
L 603 0 
L 603 3500 
z
M 603 4863 
L 1178 4863 
L 1178 4134 
L 603 4134 
L 603 4863 
z
" transform="scale(0.015625)"/>
        <path id="DejaVuSans-73" d="M 2834 3397 
L 2834 2853 
Q 2591 2978 2328 3040 
Q 2066 3103 1784 3103 
Q 1356 3103 1142 2972 
Q 928 2841 928 2578 
Q 928 2378 1081 2264 
Q 1234 2150 1697 2047 
L 1894 2003 
Q 2506 1872 2764 1633 
Q 3022 1394 3022 966 
Q 3022 478 2636 193 
Q 2250 -91 1575 -91 
Q 1294 -91 989 -36 
Q 684 19 347 128 
L 347 722 
Q 666 556 975 473 
Q 1284 391 1588 391 
Q 1994 391 2212 530 
Q 2431 669 2431 922 
Q 2431 1156 2273 1281 
Q 2116 1406 1581 1522 
L 1381 1569 
Q 847 1681 609 1914 
Q 372 2147 372 2553 
Q 372 3047 722 3315 
Q 1072 3584 1716 3584 
Q 2034 3584 2315 3537 
Q 2597 3491 2834 3397 
z
" transform="scale(0.015625)"/>
       </defs>
       <use xlink:href="#DejaVuSans-55"/>
       <use xlink:href="#DejaVuSans-6e" x="73.193359"/>
       <use xlink:href="#DejaVuSans-64" x="136.572266"/>
       <use xlink:href="#DejaVuSans-6f" x="200.048828"/>
       <use xlink:href="#DejaVuSans-63" x="261.230469"/>
       <use xlink:href="#DejaVuSans-75" x="316.210938"/>
       <use xlink:href="#DejaVuSans-6d" x="379.589844"/>
       <use xlink:href="#DejaVuSans-65" x="477.001953"/>
       <use xlink:href="#DejaVuSans-6e" x="538.525391"/>
       <use xlink:href="#DejaVuSans-74" x="601.904297"/>
       <use xlink:href="#DejaVuSans-65" x="641.113281"/>
       <use xlink:href="#DejaVuSans-64" x="702.636719"/>
       <use xlink:href="#DejaVuSans-20" x="766.113281"/>
       <use xlink:href="#DejaVuSans-46" x="797.900391"/>
       <use xlink:href="#DejaVuSans-75" x="849.919922"/>
       <use xlink:href="#DejaVuSans-6e" x="913.298828"/>
       <use xlink:href="#DejaVuSans-63" x="976.677734"/>
       <use xlink:href="#DejaVuSans-74" x="1031.658203"/>
       <use xlink:href="#DejaVuSans-69" x="1070.867188"/>
       <use xlink:href="#DejaVuSans-6f" x="1098.650391"/>
       <use xlink:href="#DejaVuSans-6e" x="1159.832031"/>
       <use xlink:href="#DejaVuSans-73" x="1223.210938"/>
      </g>
     </g>
    </g>
    <g id="xtick_2">
     <g id="line2d_2">
      <g>
       <use xlink:href="#m517157a880" x="290.639375" y="681.32" style="stroke: #000000; stroke-width: 0.8"/>
      </g>
     </g>
     <g id="text_2">
      <!-- Undocumented Methods -->
      <g transform="translate(229.38625 695.918438) scale(0.1 -0.1)">
       <defs>
        <path id="DejaVuSans-4d" d="M 628 4666 
L 1569 4666 
L 2759 1491 
L 3956 4666 
L 4897 4666 
L 4897 0 
L 4281 0 
L 4281 4097 
L 3078 897 
L 2444 897 
L 1241 4097 
L 1241 0 
L 628 0 
L 628 4666 
z
" transform="scale(0.015625)"/>
        <path id="DejaVuSans-68" d="M 3513 2113 
L 3513 0 
L 2938 0 
L 2938 2094 
Q 2938 2591 2744 2837 
Q 2550 3084 2163 3084 
Q 1697 3084 1428 2787 
Q 1159 2491 1159 1978 
L 1159 0 
L 581 0 
L 581 4863 
L 1159 4863 
L 1159 2956 
Q 1366 3272 1645 3428 
Q 1925 3584 2291 3584 
Q 2894 3584 3203 3211 
Q 3513 2838 3513 2113 
z
" transform="scale(0.015625)"/>
       </defs>
       <use xlink:href="#DejaVuSans-55"/>
       <use xlink:href="#DejaVuSans-6e" x="73.193359"/>
       <use xlink:href="#DejaVuSans-64" x="136.572266"/>
       <use xlink:href="#DejaVuSans-6f" x="200.048828"/>
       <use xlink:href="#DejaVuSans-63" x="261.230469"/>
       <use xlink:href="#DejaVuSans-75" x="316.210938"/>
       <use xlink:href="#DejaVuSans-6d" x="379.589844"/>
       <use xlink:href="#DejaVuSans-65" x="477.001953"/>
       <use xlink:href="#DejaVuSans-6e" x="538.525391"/>
       <use xlink:href="#DejaVuSans-74" x="601.904297"/>
       <use xlink:href="#DejaVuSans-65" x="641.113281"/>
       <use xlink:href="#DejaVuSans-64" x="702.636719"/>
       <use xlink:href="#DejaVuSans-20" x="766.113281"/>
       <use xlink:href="#DejaVuSans-4d" x="797.900391"/>
       <use xlink:href="#DejaVuSans-65" x="884.179688"/>
       <use xlink:href="#DejaVuSans-74" x="945.703125"/>
       <use xlink:href="#DejaVuSans-68" x="984.912109"/>
       <use xlink:href="#DejaVuSans-6f" x="1048.291016"/>
       <use xlink:href="#DejaVuSans-64" x="1109.472656"/>
       <use xlink:href="#DejaVuSans-73" x="1172.949219"/>
      </g>
     </g>
    </g>
    <g id="xtick_3">
     <g id="line2d_3">
      <g>
       <use xlink:href="#m517157a880" x="453.646875" y="681.32" style="stroke: #000000; stroke-width: 0.8"/>
      </g>
     </g>
     <g id="text_3">
      <!-- Undocumented Classes -->
      <g transform="translate(394.916406 695.918438) scale(0.1 -0.1)">
       <defs>
        <path id="DejaVuSans-43" d="M 4122 4306 
L 4122 3641 
Q 3803 3938 3442 4084 
Q 3081 4231 2675 4231 
Q 1875 4231 1450 3742 
Q 1025 3253 1025 2328 
Q 1025 1406 1450 917 
Q 1875 428 2675 428 
Q 3081 428 3442 575 
Q 3803 722 4122 1019 
L 4122 359 
Q 3791 134 3420 21 
Q 3050 -91 2638 -91 
Q 1578 -91 968 557 
Q 359 1206 359 2328 
Q 359 3453 968 4101 
Q 1578 4750 2638 4750 
Q 3056 4750 3426 4639 
Q 3797 4528 4122 4306 
z
" transform="scale(0.015625)"/>
        <path id="DejaVuSans-6c" d="M 603 4863 
L 1178 4863 
L 1178 0 
L 603 0 
L 603 4863 
z
" transform="scale(0.015625)"/>
        <path id="DejaVuSans-61" d="M 2194 1759 
Q 1497 1759 1228 1600 
Q 959 1441 959 1056 
Q 959 750 1161 570 
Q 1363 391 1709 391 
Q 2188 391 2477 730 
Q 2766 1069 2766 1631 
L 2766 1759 
L 2194 1759 
z
M 3341 1997 
L 3341 0 
L 2766 0 
L 2766 531 
Q 2569 213 2275 61 
Q 1981 -91 1556 -91 
Q 1019 -91 701 211 
Q 384 513 384 1019 
Q 384 1609 779 1909 
Q 1175 2209 1959 2209 
L 2766 2209 
L 2766 2266 
Q 2766 2663 2505 2880 
Q 2244 3097 1772 3097 
Q 1472 3097 1187 3025 
Q 903 2953 641 2809 
L 641 3341 
Q 956 3463 1253 3523 
Q 1550 3584 1831 3584 
Q 2591 3584 2966 3190 
Q 3341 2797 3341 1997 
z
" transform="scale(0.015625)"/>
       </defs>
       <use xlink:href="#DejaVuSans-55"/>
       <use xlink:href="#DejaVuSans-6e" x="73.193359"/>
       <use xlink:href="#DejaVuSans-64" x="136.572266"/>
       <use xlink:href="#DejaVuSans-6f" x="200.048828"/>
       <use xlink:href="#DejaVuSans-63" x="261.230469"/>
       <use xlink:href="#DejaVuSans-75" x="316.210938"/>
       <use xlink:href="#DejaVuSans-6d" x="379.589844"/>
       <use xlink:href="#DejaVuSans-65" x="477.001953"/>
       <use xlink:href="#DejaVuSans-6e" x="538.525391"/>
       <use xlink:href="#DejaVuSans-74" x="601.904297"/>
       <use xlink:href="#DejaVuSans-65" x="641.113281"/>
       <use xlink:href="#DejaVuSans-64" x="702.636719"/>
       <use xlink:href="#DejaVuSans-20" x="766.113281"/>
       <use xlink:href="#DejaVuSans-43" x="797.900391"/>
       <use xlink:href="#DejaVuSans-6c" x="867.724609"/>
       <use xlink:href="#DejaVuSans-61" x="895.507812"/>
       <use xlink:href="#DejaVuSans-73" x="956.787109"/>
       <use xlink:href="#DejaVuSans-73" x="1008.886719"/>
       <use xlink:href="#DejaVuSans-65" x="1060.986328"/>
       <use xlink:href="#DejaVuSans-73" x="1122.509766"/>
      </g>
     </g>
    </g>
    <g id="xtick_4">
     <g id="line2d_4">
      <g>
       <use xlink:href="#m517157a880" x="616.654375" y="681.32" style="stroke: #000000; stroke-width: 0.8"/>
      </g>
     </g>
     <g id="text_4">
      <!-- Undocumented Modules -->
      <g transform="translate(555.972344 695.918438) scale(0.1 -0.1)">
       <use xlink:href="#DejaVuSans-55"/>
       <use xlink:href="#DejaVuSans-6e" x="73.193359"/>
       <use xlink:href="#DejaVuSans-64" x="136.572266"/>
       <use xlink:href="#DejaVuSans-6f" x="200.048828"/>
       <use xlink:href="#DejaVuSans-63" x="261.230469"/>
       <use xlink:href="#DejaVuSans-75" x="316.210938"/>
       <use xlink:href="#DejaVuSans-6d" x="379.589844"/>
       <use xlink:href="#DejaVuSans-65" x="477.001953"/>
       <use xlink:href="#DejaVuSans-6e" x="538.525391"/>
       <use xlink:href="#DejaVuSans-74" x="601.904297"/>
       <use xlink:href="#DejaVuSans-65" x="641.113281"/>
       <use xlink:href="#DejaVuSans-64" x="702.636719"/>
       <use xlink:href="#DejaVuSans-20" x="766.113281"/>
       <use xlink:href="#DejaVuSans-4d" x="797.900391"/>
       <use xlink:href="#DejaVuSans-6f" x="884.179688"/>
       <use xlink:href="#DejaVuSans-64" x="945.361328"/>
       <use xlink:href="#DejaVuSans-75" x="1008.837891"/>
       <use xlink:href="#DejaVuSans-6c" x="1072.216797"/>
       <use xlink:href="#DejaVuSans-65" x="1100"/>
       <use xlink:href="#DejaVuSans-73" x="1161.523438"/>
      </g>
     </g>
    </g>
   </g>
   <g id="matplotlib.axis_2">
    <g id="ytick_1">
     <g id="line2d_5">
      <defs>
       <path id="m87796b2150" d="M 0 0 
L -3.5 0 
" style="stroke: #000000; stroke-width: 0.8"/>
      </defs>
      <g>
       <use xlink:href="#m87796b2150" x="46.128125" y="650.350909" style="stroke: #000000; stroke-width: 0.8"/>
      </g>
     </g>
     <g id="text_5">
      <!-- 1 -->
      <g transform="translate(32.765625 654.150128) scale(0.1 -0.1)">
       <defs>
        <path id="DejaVuSans-31" d="M 794 531 
L 1825 531 
L 1825 4091 
L 703 3866 
L 703 4441 
L 1819 4666 
L 2450 4666 
L 2450 531 
L 3481 531 
L 3481 0 
L 794 0 
L 794 531 
z
" transform="scale(0.015625)"/>
       </defs>
       <use xlink:href="#DejaVuSans-31"/>
      </g>
     </g>
    </g>
    <g id="ytick_2">
     <g id="line2d_6">
      <g>
       <use xlink:href="#m87796b2150" x="46.128125" y="451.867607" style="stroke: #000000; stroke-width: 0.8"/>
      </g>
     </g>
     <g id="text_6">
      <!-- 10 -->
      <g transform="translate(26.403125 455.666826) scale(0.1 -0.1)">
       <defs>
        <path id="DejaVuSans-30" d="M 2034 4250 
Q 1547 4250 1301 3770 
Q 1056 3291 1056 2328 
Q 1056 1369 1301 889 
Q 1547 409 2034 409 
Q 2525 409 2770 889 
Q 3016 1369 3016 2328 
Q 3016 3291 2770 3770 
Q 2525 4250 2034 4250 
z
M 2034 4750 
Q 2819 4750 3233 4129 
Q 3647 3509 3647 2328 
Q 3647 1150 3233 529 
Q 2819 -91 2034 -91 
Q 1250 -91 836 529 
Q 422 1150 422 2328 
Q 422 3509 836 4129 
Q 1250 4750 2034 4750 
z
" transform="scale(0.015625)"/>
       </defs>
       <use xlink:href="#DejaVuSans-31"/>
       <use xlink:href="#DejaVuSans-30" x="63.623047"/>
      </g>
     </g>
    </g>
    <g id="ytick_3">
     <g id="line2d_7">
      <g>
       <use xlink:href="#m87796b2150" x="46.128125" y="253.384305" style="stroke: #000000; stroke-width: 0.8"/>
      </g>
     </g>
     <g id="text_7">
      <!-- 100 -->
      <g transform="translate(20.040625 257.183524) scale(0.1 -0.1)">
       <use xlink:href="#DejaVuSans-31"/>
       <use xlink:href="#DejaVuSans-30" x="63.623047"/>
       <use xlink:href="#DejaVuSans-30" x="127.246094"/>
      </g>
     </g>
    </g>
    <g id="ytick_4">
     <g id="line2d_8">
      <g>
       <use xlink:href="#m87796b2150" x="46.128125" y="54.901003" style="stroke: #000000; stroke-width: 0.8"/>
      </g>
     </g>
     <g id="text_8">
      <!-- 1000 -->
      <g transform="translate(13.678125 58.700222) scale(0.1 -0.1)">
       <use xlink:href="#DejaVuSans-31"/>
       <use xlink:href="#DejaVuSans-30" x="63.623047"/>
       <use xlink:href="#DejaVuSans-30" x="127.246094"/>
       <use xlink:href="#DejaVuSans-30" x="190.869141"/>
      </g>
     </g>
    </g>
    <g id="ytick_5">
     <g id="line2d_9">
      <defs>
       <path id="med91033532" d="M 0 0 
L -2 0 
" style="stroke: #000000; stroke-width: 0.6"/>
      </defs>
      <g>
       <use xlink:href="#med91033532" x="46.128125" y="681.096362" style="stroke: #000000; stroke-width: 0.6"/>
      </g>
     </g>
    </g>
    <g id="ytick_6">
     <g id="line2d_10">
      <g>
       <use xlink:href="#med91033532" x="46.128125" y="669.585928" style="stroke: #000000; stroke-width: 0.6"/>
      </g>
     </g>
    </g>
    <g id="ytick_7">
     <g id="line2d_11">
      <g>
       <use xlink:href="#med91033532" x="46.128125" y="659.433007" style="stroke: #000000; stroke-width: 0.6"/>
      </g>
     </g>
    </g>
    <g id="ytick_8">
     <g id="line2d_12">
      <g>
       <use xlink:href="#med91033532" x="46.128125" y="590.601482" style="stroke: #000000; stroke-width: 0.6"/>
      </g>
     </g>
    </g>
    <g id="ytick_9">
     <g id="line2d_13">
      <g>
       <use xlink:href="#med91033532" x="46.128125" y="555.650307" style="stroke: #000000; stroke-width: 0.6"/>
      </g>
     </g>
    </g>
    <g id="ytick_10">
     <g id="line2d_14">
      <g>
       <use xlink:href="#med91033532" x="46.128125" y="530.852054" style="stroke: #000000; stroke-width: 0.6"/>
      </g>
     </g>
    </g>
    <g id="ytick_11">
     <g id="line2d_15">
      <g>
       <use xlink:href="#med91033532" x="46.128125" y="511.617035" style="stroke: #000000; stroke-width: 0.6"/>
      </g>
     </g>
    </g>
    <g id="ytick_12">
     <g id="line2d_16">
      <g>
       <use xlink:href="#med91033532" x="46.128125" y="495.900879" style="stroke: #000000; stroke-width: 0.6"/>
      </g>
     </g>
    </g>
    <g id="ytick_13">
     <g id="line2d_17">
      <g>
       <use xlink:href="#med91033532" x="46.128125" y="482.61306" style="stroke: #000000; stroke-width: 0.6"/>
      </g>
     </g>
    </g>
    <g id="ytick_14">
     <g id="line2d_18">
      <g>
       <use xlink:href="#med91033532" x="46.128125" y="471.102626" style="stroke: #000000; stroke-width: 0.6"/>
      </g>
     </g>
    </g>
    <g id="ytick_15">
     <g id="line2d_19">
      <g>
       <use xlink:href="#med91033532" x="46.128125" y="460.949705" style="stroke: #000000; stroke-width: 0.6"/>
      </g>
     </g>
    </g>
    <g id="ytick_16">
     <g id="line2d_20">
      <g>
       <use xlink:href="#med91033532" x="46.128125" y="392.118179" style="stroke: #000000; stroke-width: 0.6"/>
      </g>
     </g>
    </g>
    <g id="ytick_17">
     <g id="line2d_21">
      <g>
       <use xlink:href="#med91033532" x="46.128125" y="357.167005" style="stroke: #000000; stroke-width: 0.6"/>
      </g>
     </g>
    </g>
    <g id="ytick_18">
     <g id="line2d_22">
      <g>
       <use xlink:href="#med91033532" x="46.128125" y="332.368752" style="stroke: #000000; stroke-width: 0.6"/>
      </g>
     </g>
    </g>
    <g id="ytick_19">
     <g id="line2d_23">
      <g>
       <use xlink:href="#med91033532" x="46.128125" y="313.133733" style="stroke: #000000; stroke-width: 0.6"/>
      </g>
     </g>
    </g>
    <g id="ytick_20">
     <g id="line2d_24">
      <g>
       <use xlink:href="#med91033532" x="46.128125" y="297.417577" style="stroke: #000000; stroke-width: 0.6"/>
      </g>
     </g>
    </g>
    <g id="ytick_21">
     <g id="line2d_25">
      <g>
       <use xlink:href="#med91033532" x="46.128125" y="284.129757" style="stroke: #000000; stroke-width: 0.6"/>
      </g>
     </g>
    </g>
    <g id="ytick_22">
     <g id="line2d_26">
      <g>
       <use xlink:href="#med91033532" x="46.128125" y="272.619324" style="stroke: #000000; stroke-width: 0.6"/>
      </g>
     </g>
    </g>
    <g id="ytick_23">
     <g id="line2d_27">
      <g>
       <use xlink:href="#med91033532" x="46.128125" y="262.466403" style="stroke: #000000; stroke-width: 0.6"/>
      </g>
     </g>
    </g>
    <g id="ytick_24">
     <g id="line2d_28">
      <g>
       <use xlink:href="#med91033532" x="46.128125" y="193.634877" style="stroke: #000000; stroke-width: 0.6"/>
      </g>
     </g>
    </g>
    <g id="ytick_25">
     <g id="line2d_29">
      <g>
       <use xlink:href="#med91033532" x="46.128125" y="158.683703" style="stroke: #000000; stroke-width: 0.6"/>
      </g>
     </g>
    </g>
    <g id="ytick_26">
     <g id="line2d_30">
      <g>
       <use xlink:href="#med91033532" x="46.128125" y="133.88545" style="stroke: #000000; stroke-width: 0.6"/>
      </g>
     </g>
    </g>
    <g id="ytick_27">
     <g id="line2d_31">
      <g>
       <use xlink:href="#med91033532" x="46.128125" y="114.65043" style="stroke: #000000; stroke-width: 0.6"/>
      </g>
     </g>
    </g>
    <g id="ytick_28">
     <g id="line2d_32">
      <g>
       <use xlink:href="#med91033532" x="46.128125" y="98.934275" style="stroke: #000000; stroke-width: 0.6"/>
      </g>
     </g>
    </g>
    <g id="ytick_29">
     <g id="line2d_33">
      <g>
       <use xlink:href="#med91033532" x="46.128125" y="85.646455" style="stroke: #000000; stroke-width: 0.6"/>
      </g>
     </g>
    </g>
    <g id="ytick_30">
     <g id="line2d_34">
      <g>
       <use xlink:href="#med91033532" x="46.128125" y="74.136022" style="stroke: #000000; stroke-width: 0.6"/>
      </g>
     </g>
    </g>
    <g id="ytick_31">
     <g id="line2d_35">
      <g>
       <use xlink:href="#med91033532" x="46.128125" y="63.983101" style="stroke: #000000; stroke-width: 0.6"/>
      </g>
     </g>
    </g>
    <g id="text_9">
     <!-- Mean Occurrences -->
     <g transform="translate(7.598438 387.062344) rotate(-90) scale(0.1 -0.1)">
      <defs>
       <path id="DejaVuSans-4f" d="M 2522 4238 
Q 1834 4238 1429 3725 
Q 1025 3213 1025 2328 
Q 1025 1447 1429 934 
Q 1834 422 2522 422 
Q 3209 422 3611 934 
Q 4013 1447 4013 2328 
Q 4013 3213 3611 3725 
Q 3209 4238 2522 4238 
z
M 2522 4750 
Q 3503 4750 4090 4092 
Q 4678 3434 4678 2328 
Q 4678 1225 4090 567 
Q 3503 -91 2522 -91 
Q 1538 -91 948 565 
Q 359 1222 359 2328 
Q 359 3434 948 4092 
Q 1538 4750 2522 4750 
z
" transform="scale(0.015625)"/>
       <path id="DejaVuSans-72" d="M 2631 2963 
Q 2534 3019 2420 3045 
Q 2306 3072 2169 3072 
Q 1681 3072 1420 2755 
Q 1159 2438 1159 1844 
L 1159 0 
L 581 0 
L 581 3500 
L 1159 3500 
L 1159 2956 
Q 1341 3275 1631 3429 
Q 1922 3584 2338 3584 
Q 2397 3584 2469 3576 
Q 2541 3569 2628 3553 
L 2631 2963 
z
" transform="scale(0.015625)"/>
      </defs>
      <use xlink:href="#DejaVuSans-4d"/>
      <use xlink:href="#DejaVuSans-65" x="86.279297"/>
      <use xlink:href="#DejaVuSans-61" x="147.802734"/>
      <use xlink:href="#DejaVuSans-6e" x="209.082031"/>
      <use xlink:href="#DejaVuSans-20" x="272.460938"/>
      <use xlink:href="#DejaVuSans-4f" x="304.248047"/>
      <use xlink:href="#DejaVuSans-63" x="382.958984"/>
      <use xlink:href="#DejaVuSans-63" x="437.939453"/>
      <use xlink:href="#DejaVuSans-75" x="492.919922"/>
      <use xlink:href="#DejaVuSans-72" x="556.298828"/>
      <use xlink:href="#DejaVuSans-72" x="595.662109"/>
      <use xlink:href="#DejaVuSans-65" x="634.525391"/>
      <use xlink:href="#DejaVuSans-6e" x="696.048828"/>
      <use xlink:href="#DejaVuSans-63" x="759.427734"/>
      <use xlink:href="#DejaVuSans-65" x="814.408203"/>
      <use xlink:href="#DejaVuSans-73" x="875.931641"/>
     </g>
    </g>
   </g>
   <g id="patch_3">
    <path d="M 62.428875 416.001833 
L 192.834875 416.001833 
L 192.834875 253.883524 
L 62.428875 253.883524 
L 62.428875 416.001833 
z
" clip-path="url(#p2eed9d97f7)" style="fill: #3274a1; stroke: #3d3d3d; stroke-linejoin: miter"/>
   </g>
   <g id="line2d_36">
    <path d="M 127.631875 416.001833 
L 127.631875 698.998125 
" clip-path="url(#p2eed9d97f7)" style="fill: none; stroke: #3d3d3d"/>
   </g>
   <g id="line2d_37">
    <path d="M 127.631875 253.883524 
L 127.631875 183.795982 
" clip-path="url(#p2eed9d97f7)" style="fill: none; stroke: #3d3d3d"/>
   </g>
   <g id="line2d_38">
    <path clip-path="url(#p2eed9d97f7)" style="fill: none; stroke: #3d3d3d; stroke-linecap: square"/>
   </g>
   <g id="line2d_39">
    <path d="M 95.030375 183.795982 
L 160.233375 183.795982 
" clip-path="url(#p2eed9d97f7)" style="fill: none; stroke: #3d3d3d; stroke-linecap: square"/>
   </g>
   <g id="line2d_40">
    <defs>
     <path id="m70a150bc5d" d="M 0 3 
C 0.795609 3 1.55874 2.683901 2.12132 2.12132 
C 2.683901 1.55874 3 0.795609 3 0 
C 3 -0.795609 2.683901 -1.55874 2.12132 -2.12132 
C 1.55874 -2.683901 0.795609 -3 0 -3 
C -0.795609 -3 -1.55874 -2.683901 -2.12132 -2.12132 
C -2.683901 -1.55874 -3 -0.795609 -3 0 
C -3 0.795609 -2.683901 1.55874 -2.12132 2.12132 
C -1.55874 2.683901 -0.795609 3 0 3 
z
" style="stroke: #3d3d3d"/>
    </defs>
    <g clip-path="url(#p2eed9d97f7)">
     <use xlink:href="#m70a150bc5d" x="127.631875" y="133.241361" style="fill-opacity: 0; stroke: #3d3d3d"/>
     <use xlink:href="#m70a150bc5d" x="127.631875" y="174.706894" style="fill-opacity: 0; stroke: #3d3d3d"/>
     <use xlink:href="#m70a150bc5d" x="127.631875" y="163.726747" style="fill-opacity: 0; stroke: #3d3d3d"/>
     <use xlink:href="#m70a150bc5d" x="127.631875" y="170.933814" style="fill-opacity: 0; stroke: #3d3d3d"/>
     <use xlink:href="#m70a150bc5d" x="127.631875" y="182.393763" style="fill-opacity: 0; stroke: #3d3d3d"/>
     <use xlink:href="#m70a150bc5d" x="127.631875" y="143.688892" style="fill-opacity: 0; stroke: #3d3d3d"/>
     <use xlink:href="#m70a150bc5d" x="127.631875" y="166.813303" style="fill-opacity: 0; stroke: #3d3d3d"/>
    </g>
   </g>
   <g id="patch_4">
    <path d="M 225.436375 199133.652967 
L 355.842375 199133.652967 
L 355.842375 287.392454 
L 225.436375 287.392454 
L 225.436375 199133.652967 
z
" clip-path="url(#p2eed9d97f7)" style="fill: #e1812c; stroke: #3d3d3d; stroke-linejoin: miter"/>
   </g>
   <g id="line2d_41">
    <path clip-path="url(#p2eed9d97f7)" style="fill: none; stroke: #3d3d3d"/>
   </g>
   <g id="line2d_42">
    <path d="M 290.639375 287.392454 
L 290.639375 213.410339 
" clip-path="url(#p2eed9d97f7)" style="fill: none; stroke: #3d3d3d"/>
   </g>
   <g id="line2d_43">
    <path clip-path="url(#p2eed9d97f7)" style="fill: none; stroke: #3d3d3d; stroke-linecap: square"/>
   </g>
   <g id="line2d_44">
    <path d="M 258.037875 213.410339 
L 323.240875 213.410339 
" clip-path="url(#p2eed9d97f7)" style="fill: none; stroke: #3d3d3d; stroke-linecap: square"/>
   </g>
   <g id="line2d_45">
    <g clip-path="url(#p2eed9d97f7)">
     <use xlink:href="#m70a150bc5d" x="290.639375" y="30.969091" style="fill-opacity: 0; stroke: #3d3d3d"/>
     <use xlink:href="#m70a150bc5d" x="290.639375" y="175.174056" style="fill-opacity: 0; stroke: #3d3d3d"/>
     <use xlink:href="#m70a150bc5d" x="290.639375" y="201.764477" style="fill-opacity: 0; stroke: #3d3d3d"/>
     <use xlink:href="#m70a150bc5d" x="290.639375" y="184.938491" style="fill-opacity: 0; stroke: #3d3d3d"/>
     <use xlink:href="#m70a150bc5d" x="290.639375" y="182.340215" style="fill-opacity: 0; stroke: #3d3d3d"/>
     <use xlink:href="#m70a150bc5d" x="290.639375" y="118.89064" style="fill-opacity: 0; stroke: #3d3d3d"/>
     <use xlink:href="#m70a150bc5d" x="290.639375" y="124.695669" style="fill-opacity: 0; stroke: #3d3d3d"/>
     <use xlink:href="#m70a150bc5d" x="290.639375" y="204.165752" style="fill-opacity: 0; stroke: #3d3d3d"/>
    </g>
   </g>
   <g id="patch_5">
    <path d="M 388.443875 650.350909 
L 518.849875 650.350909 
L 518.849875 389.194745 
L 388.443875 389.194745 
L 388.443875 650.350909 
z
" clip-path="url(#p2eed9d97f7)" style="fill: #3a923a; stroke: #3d3d3d; stroke-linejoin: miter"/>
   </g>
   <g id="line2d_46">
    <path d="M 453.646875 650.350909 
L 453.646875 698.998125 
" clip-path="url(#p2eed9d97f7)" style="fill: none; stroke: #3d3d3d"/>
   </g>
   <g id="line2d_47">
    <path d="M 453.646875 389.194745 
L 453.646875 343.879185 
" clip-path="url(#p2eed9d97f7)" style="fill: none; stroke: #3d3d3d"/>
   </g>
   <g id="line2d_48">
    <path clip-path="url(#p2eed9d97f7)" style="fill: none; stroke: #3d3d3d; stroke-linecap: square"/>
   </g>
   <g id="line2d_49">
    <path d="M 421.045375 343.879185 
L 486.248375 343.879185 
" clip-path="url(#p2eed9d97f7)" style="fill: none; stroke: #3d3d3d; stroke-linecap: square"/>
   </g>
   <g id="line2d_50">
    <g clip-path="url(#p2eed9d97f7)">
     <use xlink:href="#m70a150bc5d" x="453.646875" y="290.51788" style="fill-opacity: 0; stroke: #3d3d3d"/>
     <use xlink:href="#m70a150bc5d" x="453.646875" y="258.717977" style="fill-opacity: 0; stroke: #3d3d3d"/>
     <use xlink:href="#m70a150bc5d" x="453.646875" y="209.696525" style="fill-opacity: 0; stroke: #3d3d3d"/>
     <use xlink:href="#m70a150bc5d" x="453.646875" y="287.905552" style="fill-opacity: 0; stroke: #3d3d3d"/>
     <use xlink:href="#m70a150bc5d" x="453.646875" y="293.211855" style="fill-opacity: 0; stroke: #3d3d3d"/>
     <use xlink:href="#m70a150bc5d" x="453.646875" y="288.129595" style="fill-opacity: 0; stroke: #3d3d3d"/>
     <use xlink:href="#m70a150bc5d" x="453.646875" y="274.372479" style="fill-opacity: 0; stroke: #3d3d3d"/>
     <use xlink:href="#m70a150bc5d" x="453.646875" y="259.639913" style="fill-opacity: 0; stroke: #3d3d3d"/>
     <use xlink:href="#m70a150bc5d" x="453.646875" y="227.515228" style="fill-opacity: 0; stroke: #3d3d3d"/>
     <use xlink:href="#m70a150bc5d" x="453.646875" y="255.125782" style="fill-opacity: 0; stroke: #3d3d3d"/>
     <use xlink:href="#m70a150bc5d" x="453.646875" y="253.384305" style="fill-opacity: 0; stroke: #3d3d3d"/>
     <use xlink:href="#m70a150bc5d" x="453.646875" y="212.869897" style="fill-opacity: 0; stroke: #3d3d3d"/>
     <use xlink:href="#m70a150bc5d" x="453.646875" y="228.801822" style="fill-opacity: 0; stroke: #3d3d3d"/>
     <use xlink:href="#m70a150bc5d" x="453.646875" y="252.322169" style="fill-opacity: 0; stroke: #3d3d3d"/>
    </g>
   </g>
   <g id="patch_6">
    <path d="M 551.451375 496.832783 
L 681.857375 496.832783 
L 681.857375 350.340434 
L 551.451375 350.340434 
L 551.451375 496.832783 
z
" clip-path="url(#p2eed9d97f7)" style="fill: #c03d3e; stroke: #3d3d3d; stroke-linejoin: miter"/>
   </g>
   <g id="line2d_51">
    <path d="M 616.654375 496.832783 
L 616.654375 698.998125 
" clip-path="url(#p2eed9d97f7)" style="fill: none; stroke: #3d3d3d"/>
   </g>
   <g id="line2d_52">
    <path d="M 616.654375 350.340434 
L 616.654375 289.201821 
" clip-path="url(#p2eed9d97f7)" style="fill: none; stroke: #3d3d3d"/>
   </g>
   <g id="line2d_53">
    <path clip-path="url(#p2eed9d97f7)" style="fill: none; stroke: #3d3d3d; stroke-linecap: square"/>
   </g>
   <g id="line2d_54">
    <path d="M 584.052875 289.201821 
L 649.255875 289.201821 
" clip-path="url(#p2eed9d97f7)" style="fill: none; stroke: #3d3d3d; stroke-linecap: square"/>
   </g>
   <g id="line2d_55">
    <g clip-path="url(#p2eed9d97f7)">
     <use xlink:href="#m70a150bc5d" x="616.654375" y="253.384305" style="fill-opacity: 0; stroke: #3d3d3d"/>
     <use xlink:href="#m70a150bc5d" x="616.654375" y="271.548501" style="fill-opacity: 0; stroke: #3d3d3d"/>
     <use xlink:href="#m70a150bc5d" x="616.654375" y="268.413602" style="fill-opacity: 0; stroke: #3d3d3d"/>
     <use xlink:href="#m70a150bc5d" x="616.654375" y="273.639457" style="fill-opacity: 0; stroke: #3d3d3d"/>
     <use xlink:href="#m70a150bc5d" x="616.654375" y="250.608388" style="fill-opacity: 0; stroke: #3d3d3d"/>
     <use xlink:href="#m70a150bc5d" x="616.654375" y="267.27688" style="fill-opacity: 0; stroke: #3d3d3d"/>
     <use xlink:href="#m70a150bc5d" x="616.654375" y="221.526601" style="fill-opacity: 0; stroke: #3d3d3d"/>
     <use xlink:href="#m70a150bc5d" x="616.654375" y="274.801725" style="fill-opacity: 0; stroke: #3d3d3d"/>
     <use xlink:href="#m70a150bc5d" x="616.654375" y="236.952791" style="fill-opacity: 0; stroke: #3d3d3d"/>
    </g>
   </g>
   <g id="line2d_56">
    <path d="M 62.428875 315.345608 
L 192.834875 315.345608 
" clip-path="url(#p2eed9d97f7)" style="fill: none; stroke: #3d3d3d"/>
   </g>
   <g id="line2d_57">
    <path d="M 225.436375 416.916432 
L 355.842375 416.916432 
" clip-path="url(#p2eed9d97f7)" style="fill: none; stroke: #3d3d3d"/>
   </g>
   <g id="line2d_58">
    <path d="M 388.443875 460.949705 
L 518.849875 460.949705 
" clip-path="url(#p2eed9d97f7)" style="fill: none; stroke: #3d3d3d"/>
   </g>
   <g id="line2d_59">
    <path d="M 551.451375 414.949803 
L 681.857375 414.949803 
" clip-path="url(#p2eed9d97f7)" style="fill: none; stroke: #3d3d3d"/>
   </g>
   <g id="patch_7">
    <path d="M 46.128125 681.32 
L 46.128125 0 
" style="fill: none; stroke: #000000; stroke-width: 0.8; stroke-linejoin: miter; stroke-linecap: square"/>
   </g>
   <g id="patch_8">
    <path d="M 698.158125 681.32 
L 698.158125 0 
" style="fill: none; stroke: #000000; stroke-width: 0.8; stroke-linejoin: miter; stroke-linecap: square"/>
   </g>
   <g id="patch_9">
    <path d="M 46.128125 681.32 
L 698.158125 681.32 
" style="fill: none; stroke: #000000; stroke-width: 0.8; stroke-linejoin: miter; stroke-linecap: square"/>
   </g>
   <g id="patch_10">
    <path d="M 46.128125 0 
L 698.158125 0 
" style="fill: none; stroke: #000000; stroke-width: 0.8; stroke-linejoin: miter; stroke-linecap: square"/>
   </g>
  </g>
 </g>
 <defs>
  <clipPath id="p2eed9d97f7">
   <rect x="46.128125" y="0" width="652.03" height="681.32"/>
  </clipPath>
 </defs>
</svg>
