<?xml version="1.0" encoding="utf-8" standalone="no"?>
<!DOCTYPE svg PUBLIC "-//W3C//DTD SVG 1.1//EN"
  "http://www.w3.org/Graphics/SVG/1.1/DTD/svg11.dtd">
<svg xmlns:xlink="http://www.w3.org/1999/xlink" width="698.283125pt" height="697.998125pt" viewBox="0 0 698.283125 697.998125" xmlns="http://www.w3.org/2000/svg" version="1.1">
 <metadata>
  <rdf:RDF xmlns:dc="http://purl.org/dc/elements/1.1/" xmlns:cc="http://creativecommons.org/ns#" xmlns:rdf="http://www.w3.org/1999/02/22-rdf-syntax-ns#">
   <cc:Work>
    <dc:type rdf:resource="http://purl.org/dc/dcmitype/StillImage"/>
    <dc:date>2024-04-11T11:26:46.163172</dc:date>
    <dc:format>image/svg+xml</dc:format>
    <dc:creator>
     <cc:Agent>
      <dc:title>Matplotlib v3.8.3, https://matplotlib.org/</dc:title>
     </cc:Agent>
    </dc:creator>
   </cc:Work>
  </rdf:RDF>
 </metadata>
 <defs>
  <style type="text/css">*{stroke-linejoin: round; stroke-linecap: butt}</style>
 </defs>
 <g id="figure_1">
  <g id="patch_1">
   <path d="M 0 697.998125 
L 698.283125 697.998125 
L 698.283125 0 
L 0 0 
z
" style="fill: #ffffff"/>
  </g>
  <g id="axes_1">
   <g id="patch_2">
    <path d="M 58.853125 681.32 
L 698.283125 681.32 
L 698.283125 0 
L 58.853125 0 
z
" style="fill: #ffffff"/>
   </g>
   <g id="matplotlib.axis_1">
    <g id="xtick_1">
     <g id="line2d_1">
      <defs>
       <path id="m0726bfe4de" d="M 0 0 
L 0 3.5 
" style="stroke: #000000; stroke-width: 0.8"/>
      </defs>
      <g>
       <use xlink:href="#m0726bfe4de" x="165.424792" y="681.32" style="stroke: #000000; stroke-width: 0.8"/>
      </g>
     </g>
     <g id="text_1">
      <!-- Total Size of Code Churns -->
      <g transform="translate(101.93651 695.918438) scale(0.1 -0.1)">
       <defs>
        <path id="DejaVuSans-54" d="M -19 4666 
L 3928 4666 
L 3928 4134 
L 2272 4134 
L 2272 0 
L 1638 0 
L 1638 4134 
L -19 4134 
L -19 4666 
z
" transform="scale(0.015625)"/>
        <path id="DejaVuSans-6f" d="M 1959 3097 
Q 1497 3097 1228 2736 
Q 959 2375 959 1747 
Q 959 1119 1226 758 
Q 1494 397 1959 397 
Q 2419 397 2687 759 
Q 2956 1122 2956 1747 
Q 2956 2369 2687 2733 
Q 2419 3097 1959 3097 
z
M 1959 3584 
Q 2709 3584 3137 3096 
Q 3566 2609 3566 1747 
Q 3566 888 3137 398 
Q 2709 -91 1959 -91 
Q 1206 -91 779 398 
Q 353 888 353 1747 
Q 353 2609 779 3096 
Q 1206 3584 1959 3584 
z
" transform="scale(0.015625)"/>
        <path id="DejaVuSans-74" d="M 1172 4494 
L 1172 3500 
L 2356 3500 
L 2356 3053 
L 1172 3053 
L 1172 1153 
Q 1172 725 1289 603 
Q 1406 481 1766 481 
L 2356 481 
L 2356 0 
L 1766 0 
Q 1100 0 847 248 
Q 594 497 594 1153 
L 594 3053 
L 172 3053 
L 172 3500 
L 594 3500 
L 594 4494 
L 1172 4494 
z
" transform="scale(0.015625)"/>
        <path id="DejaVuSans-61" d="M 2194 1759 
Q 1497 1759 1228 1600 
Q 959 1441 959 1056 
Q 959 750 1161 570 
Q 1363 391 1709 391 
Q 2188 391 2477 730 
Q 2766 1069 2766 1631 
L 2766 1759 
L 2194 1759 
z
M 3341 1997 
L 3341 0 
L 2766 0 
L 2766 531 
Q 2569 213 2275 61 
Q 1981 -91 1556 -91 
Q 1019 -91 701 211 
Q 384 513 384 1019 
Q 384 1609 779 1909 
Q 1175 2209 1959 2209 
L 2766 2209 
L 2766 2266 
Q 2766 2663 2505 2880 
Q 2244 3097 1772 3097 
Q 1472 3097 1187 3025 
Q 903 2953 641 2809 
L 641 3341 
Q 956 3463 1253 3523 
Q 1550 3584 1831 3584 
Q 2591 3584 2966 3190 
Q 3341 2797 3341 1997 
z
" transform="scale(0.015625)"/>
        <path id="DejaVuSans-6c" d="M 603 4863 
L 1178 4863 
L 1178 0 
L 603 0 
L 603 4863 
z
" transform="scale(0.015625)"/>
        <path id="DejaVuSans-20" transform="scale(0.015625)"/>
        <path id="DejaVuSans-53" d="M 3425 4513 
L 3425 3897 
Q 3066 4069 2747 4153 
Q 2428 4238 2131 4238 
Q 1616 4238 1336 4038 
Q 1056 3838 1056 3469 
Q 1056 3159 1242 3001 
Q 1428 2844 1947 2747 
L 2328 2669 
Q 3034 2534 3370 2195 
Q 3706 1856 3706 1288 
Q 3706 609 3251 259 
Q 2797 -91 1919 -91 
Q 1588 -91 1214 -16 
Q 841 59 441 206 
L 441 856 
Q 825 641 1194 531 
Q 1563 422 1919 422 
Q 2459 422 2753 634 
Q 3047 847 3047 1241 
Q 3047 1584 2836 1778 
Q 2625 1972 2144 2069 
L 1759 2144 
Q 1053 2284 737 2584 
Q 422 2884 422 3419 
Q 422 4038 858 4394 
Q 1294 4750 2059 4750 
Q 2388 4750 2728 4690 
Q 3069 4631 3425 4513 
z
" transform="scale(0.015625)"/>
        <path id="DejaVuSans-69" d="M 603 3500 
L 1178 3500 
L 1178 0 
L 603 0 
L 603 3500 
z
M 603 4863 
L 1178 4863 
L 1178 4134 
L 603 4134 
L 603 4863 
z
" transform="scale(0.015625)"/>
        <path id="DejaVuSans-7a" d="M 353 3500 
L 3084 3500 
L 3084 2975 
L 922 459 
L 3084 459 
L 3084 0 
L 275 0 
L 275 525 
L 2438 3041 
L 353 3041 
L 353 3500 
z
" transform="scale(0.015625)"/>
        <path id="DejaVuSans-65" d="M 3597 1894 
L 3597 1613 
L 953 1613 
Q 991 1019 1311 708 
Q 1631 397 2203 397 
Q 2534 397 2845 478 
Q 3156 559 3463 722 
L 3463 178 
Q 3153 47 2828 -22 
Q 2503 -91 2169 -91 
Q 1331 -91 842 396 
Q 353 884 353 1716 
Q 353 2575 817 3079 
Q 1281 3584 2069 3584 
Q 2775 3584 3186 3129 
Q 3597 2675 3597 1894 
z
M 3022 2063 
Q 3016 2534 2758 2815 
Q 2500 3097 2075 3097 
Q 1594 3097 1305 2825 
Q 1016 2553 972 2059 
L 3022 2063 
z
" transform="scale(0.015625)"/>
        <path id="DejaVuSans-66" d="M 2375 4863 
L 2375 4384 
L 1825 4384 
Q 1516 4384 1395 4259 
Q 1275 4134 1275 3809 
L 1275 3500 
L 2222 3500 
L 2222 3053 
L 1275 3053 
L 1275 0 
L 697 0 
L 697 3053 
L 147 3053 
L 147 3500 
L 697 3500 
L 697 3744 
Q 697 4328 969 4595 
Q 1241 4863 1831 4863 
L 2375 4863 
z
" transform="scale(0.015625)"/>
        <path id="DejaVuSans-43" d="M 4122 4306 
L 4122 3641 
Q 3803 3938 3442 4084 
Q 3081 4231 2675 4231 
Q 1875 4231 1450 3742 
Q 1025 3253 1025 2328 
Q 1025 1406 1450 917 
Q 1875 428 2675 428 
Q 3081 428 3442 575 
Q 3803 722 4122 1019 
L 4122 359 
Q 3791 134 3420 21 
Q 3050 -91 2638 -91 
Q 1578 -91 968 557 
Q 359 1206 359 2328 
Q 359 3453 968 4101 
Q 1578 4750 2638 4750 
Q 3056 4750 3426 4639 
Q 3797 4528 4122 4306 
z
" transform="scale(0.015625)"/>
        <path id="DejaVuSans-64" d="M 2906 2969 
L 2906 4863 
L 3481 4863 
L 3481 0 
L 2906 0 
L 2906 525 
Q 2725 213 2448 61 
Q 2172 -91 1784 -91 
Q 1150 -91 751 415 
Q 353 922 353 1747 
Q 353 2572 751 3078 
Q 1150 3584 1784 3584 
Q 2172 3584 2448 3432 
Q 2725 3281 2906 2969 
z
M 947 1747 
Q 947 1113 1208 752 
Q 1469 391 1925 391 
Q 2381 391 2643 752 
Q 2906 1113 2906 1747 
Q 2906 2381 2643 2742 
Q 2381 3103 1925 3103 
Q 1469 3103 1208 2742 
Q 947 2381 947 1747 
z
" transform="scale(0.015625)"/>
        <path id="DejaVuSans-68" d="M 3513 2113 
L 3513 0 
L 2938 0 
L 2938 2094 
Q 2938 2591 2744 2837 
Q 2550 3084 2163 3084 
Q 1697 3084 1428 2787 
Q 1159 2491 1159 1978 
L 1159 0 
L 581 0 
L 581 4863 
L 1159 4863 
L 1159 2956 
Q 1366 3272 1645 3428 
Q 1925 3584 2291 3584 
Q 2894 3584 3203 3211 
Q 3513 2838 3513 2113 
z
" transform="scale(0.015625)"/>
        <path id="DejaVuSans-75" d="M 544 1381 
L 544 3500 
L 1119 3500 
L 1119 1403 
Q 1119 906 1312 657 
Q 1506 409 1894 409 
Q 2359 409 2629 706 
Q 2900 1003 2900 1516 
L 2900 3500 
L 3475 3500 
L 3475 0 
L 2900 0 
L 2900 538 
Q 2691 219 2414 64 
Q 2138 -91 1772 -91 
Q 1169 -91 856 284 
Q 544 659 544 1381 
z
M 1991 3584 
L 1991 3584 
z
" transform="scale(0.015625)"/>
        <path id="DejaVuSans-72" d="M 2631 2963 
Q 2534 3019 2420 3045 
Q 2306 3072 2169 3072 
Q 1681 3072 1420 2755 
Q 1159 2438 1159 1844 
L 1159 0 
L 581 0 
L 581 3500 
L 1159 3500 
L 1159 2956 
Q 1341 3275 1631 3429 
Q 1922 3584 2338 3584 
Q 2397 3584 2469 3576 
Q 2541 3569 2628 3553 
L 2631 2963 
z
" transform="scale(0.015625)"/>
        <path id="DejaVuSans-6e" d="M 3513 2113 
L 3513 0 
L 2938 0 
L 2938 2094 
Q 2938 2591 2744 2837 
Q 2550 3084 2163 3084 
Q 1697 3084 1428 2787 
Q 1159 2491 1159 1978 
L 1159 0 
L 581 0 
L 581 3500 
L 1159 3500 
L 1159 2956 
Q 1366 3272 1645 3428 
Q 1925 3584 2291 3584 
Q 2894 3584 3203 3211 
Q 3513 2838 3513 2113 
z
" transform="scale(0.015625)"/>
        <path id="DejaVuSans-73" d="M 2834 3397 
L 2834 2853 
Q 2591 2978 2328 3040 
Q 2066 3103 1784 3103 
Q 1356 3103 1142 2972 
Q 928 2841 928 2578 
Q 928 2378 1081 2264 
Q 1234 2150 1697 2047 
L 1894 2003 
Q 2506 1872 2764 1633 
Q 3022 1394 3022 966 
Q 3022 478 2636 193 
Q 2250 -91 1575 -91 
Q 1294 -91 989 -36 
Q 684 19 347 128 
L 347 722 
Q 666 556 975 473 
Q 1284 391 1588 391 
Q 1994 391 2212 530 
Q 2431 669 2431 922 
Q 2431 1156 2273 1281 
Q 2116 1406 1581 1522 
L 1381 1569 
Q 847 1681 609 1914 
Q 372 2147 372 2553 
Q 372 3047 722 3315 
Q 1072 3584 1716 3584 
Q 2034 3584 2315 3537 
Q 2597 3491 2834 3397 
z
" transform="scale(0.015625)"/>
       </defs>
       <use xlink:href="#DejaVuSans-54"/>
       <use xlink:href="#DejaVuSans-6f" x="44.083984"/>
       <use xlink:href="#DejaVuSans-74" x="105.265625"/>
       <use xlink:href="#DejaVuSans-61" x="144.474609"/>
       <use xlink:href="#DejaVuSans-6c" x="205.753906"/>
       <use xlink:href="#DejaVuSans-20" x="233.537109"/>
       <use xlink:href="#DejaVuSans-53" x="265.324219"/>
       <use xlink:href="#DejaVuSans-69" x="328.800781"/>
       <use xlink:href="#DejaVuSans-7a" x="356.583984"/>
       <use xlink:href="#DejaVuSans-65" x="409.074219"/>
       <use xlink:href="#DejaVuSans-20" x="470.597656"/>
       <use xlink:href="#DejaVuSans-6f" x="502.384766"/>
       <use xlink:href="#DejaVuSans-66" x="563.566406"/>
       <use xlink:href="#DejaVuSans-20" x="598.771484"/>
       <use xlink:href="#DejaVuSans-43" x="630.558594"/>
       <use xlink:href="#DejaVuSans-6f" x="700.382812"/>
       <use xlink:href="#DejaVuSans-64" x="761.564453"/>
       <use xlink:href="#DejaVuSans-65" x="825.041016"/>
       <use xlink:href="#DejaVuSans-20" x="886.564453"/>
       <use xlink:href="#DejaVuSans-43" x="918.351562"/>
       <use xlink:href="#DejaVuSans-68" x="988.175781"/>
       <use xlink:href="#DejaVuSans-75" x="1051.554688"/>
       <use xlink:href="#DejaVuSans-72" x="1114.933594"/>
       <use xlink:href="#DejaVuSans-6e" x="1154.296875"/>
       <use xlink:href="#DejaVuSans-73" x="1217.675781"/>
      </g>
     </g>
    </g>
    <g id="xtick_2">
     <g id="line2d_2">
      <g>
       <use xlink:href="#m0726bfe4de" x="378.568125" y="681.32" style="stroke: #000000; stroke-width: 0.8"/>
      </g>
     </g>
     <g id="text_2">
      <!-- Average Size of Code Churns -->
      <g transform="translate(306.223594 695.918438) scale(0.1 -0.1)">
       <defs>
        <path id="DejaVuSans-41" d="M 2188 4044 
L 1331 1722 
L 3047 1722 
L 2188 4044 
z
M 1831 4666 
L 2547 4666 
L 4325 0 
L 3669 0 
L 3244 1197 
L 1141 1197 
L 716 0 
L 50 0 
L 1831 4666 
z
" transform="scale(0.015625)"/>
        <path id="DejaVuSans-76" d="M 191 3500 
L 800 3500 
L 1894 563 
L 2988 3500 
L 3597 3500 
L 2284 0 
L 1503 0 
L 191 3500 
z
" transform="scale(0.015625)"/>
        <path id="DejaVuSans-67" d="M 2906 1791 
Q 2906 2416 2648 2759 
Q 2391 3103 1925 3103 
Q 1463 3103 1205 2759 
Q 947 2416 947 1791 
Q 947 1169 1205 825 
Q 1463 481 1925 481 
Q 2391 481 2648 825 
Q 2906 1169 2906 1791 
z
M 3481 434 
Q 3481 -459 3084 -895 
Q 2688 -1331 1869 -1331 
Q 1566 -1331 1297 -1286 
Q 1028 -1241 775 -1147 
L 775 -588 
Q 1028 -725 1275 -790 
Q 1522 -856 1778 -856 
Q 2344 -856 2625 -561 
Q 2906 -266 2906 331 
L 2906 616 
Q 2728 306 2450 153 
Q 2172 0 1784 0 
Q 1141 0 747 490 
Q 353 981 353 1791 
Q 353 2603 747 3093 
Q 1141 3584 1784 3584 
Q 2172 3584 2450 3431 
Q 2728 3278 2906 2969 
L 2906 3500 
L 3481 3500 
L 3481 434 
z
" transform="scale(0.015625)"/>
       </defs>
       <use xlink:href="#DejaVuSans-41"/>
       <use xlink:href="#DejaVuSans-76" x="62.533203"/>
       <use xlink:href="#DejaVuSans-65" x="121.712891"/>
       <use xlink:href="#DejaVuSans-72" x="183.236328"/>
       <use xlink:href="#DejaVuSans-61" x="224.349609"/>
       <use xlink:href="#DejaVuSans-67" x="285.628906"/>
       <use xlink:href="#DejaVuSans-65" x="349.105469"/>
       <use xlink:href="#DejaVuSans-20" x="410.628906"/>
       <use xlink:href="#DejaVuSans-53" x="442.416016"/>
       <use xlink:href="#DejaVuSans-69" x="505.892578"/>
       <use xlink:href="#DejaVuSans-7a" x="533.675781"/>
       <use xlink:href="#DejaVuSans-65" x="586.166016"/>
       <use xlink:href="#DejaVuSans-20" x="647.689453"/>
       <use xlink:href="#DejaVuSans-6f" x="679.476562"/>
       <use xlink:href="#DejaVuSans-66" x="740.658203"/>
       <use xlink:href="#DejaVuSans-20" x="775.863281"/>
       <use xlink:href="#DejaVuSans-43" x="807.650391"/>
       <use xlink:href="#DejaVuSans-6f" x="877.474609"/>
       <use xlink:href="#DejaVuSans-64" x="938.65625"/>
       <use xlink:href="#DejaVuSans-65" x="1002.132812"/>
       <use xlink:href="#DejaVuSans-20" x="1063.65625"/>
       <use xlink:href="#DejaVuSans-43" x="1095.443359"/>
       <use xlink:href="#DejaVuSans-68" x="1165.267578"/>
       <use xlink:href="#DejaVuSans-75" x="1228.646484"/>
       <use xlink:href="#DejaVuSans-72" x="1292.025391"/>
       <use xlink:href="#DejaVuSans-6e" x="1331.388672"/>
       <use xlink:href="#DejaVuSans-73" x="1394.767578"/>
      </g>
     </g>
    </g>
    <g id="xtick_3">
     <g id="line2d_3">
      <g>
       <use xlink:href="#m0726bfe4de" x="591.711458" y="681.32" style="stroke: #000000; stroke-width: 0.8"/>
      </g>
     </g>
     <g id="text_3">
      <!-- Maximum Size of Code Churns -->
      <g transform="translate(515.263802 695.918438) scale(0.1 -0.1)">
       <defs>
        <path id="DejaVuSans-4d" d="M 628 4666 
L 1569 4666 
L 2759 1491 
L 3956 4666 
L 4897 4666 
L 4897 0 
L 4281 0 
L 4281 4097 
L 3078 897 
L 2444 897 
L 1241 4097 
L 1241 0 
L 628 0 
L 628 4666 
z
" transform="scale(0.015625)"/>
        <path id="DejaVuSans-78" d="M 3513 3500 
L 2247 1797 
L 3578 0 
L 2900 0 
L 1881 1375 
L 863 0 
L 184 0 
L 1544 1831 
L 300 3500 
L 978 3500 
L 1906 2253 
L 2834 3500 
L 3513 3500 
z
" transform="scale(0.015625)"/>
        <path id="DejaVuSans-6d" d="M 3328 2828 
Q 3544 3216 3844 3400 
Q 4144 3584 4550 3584 
Q 5097 3584 5394 3201 
Q 5691 2819 5691 2113 
L 5691 0 
L 5113 0 
L 5113 2094 
Q 5113 2597 4934 2840 
Q 4756 3084 4391 3084 
Q 3944 3084 3684 2787 
Q 3425 2491 3425 1978 
L 3425 0 
L 2847 0 
L 2847 2094 
Q 2847 2600 2669 2842 
Q 2491 3084 2119 3084 
Q 1678 3084 1418 2786 
Q 1159 2488 1159 1978 
L 1159 0 
L 581 0 
L 581 3500 
L 1159 3500 
L 1159 2956 
Q 1356 3278 1631 3431 
Q 1906 3584 2284 3584 
Q 2666 3584 2933 3390 
Q 3200 3197 3328 2828 
z
" transform="scale(0.015625)"/>
       </defs>
       <use xlink:href="#DejaVuSans-4d"/>
       <use xlink:href="#DejaVuSans-61" x="86.279297"/>
       <use xlink:href="#DejaVuSans-78" x="147.558594"/>
       <use xlink:href="#DejaVuSans-69" x="206.738281"/>
       <use xlink:href="#DejaVuSans-6d" x="234.521484"/>
       <use xlink:href="#DejaVuSans-75" x="331.933594"/>
       <use xlink:href="#DejaVuSans-6d" x="395.3125"/>
       <use xlink:href="#DejaVuSans-20" x="492.724609"/>
       <use xlink:href="#DejaVuSans-53" x="524.511719"/>
       <use xlink:href="#DejaVuSans-69" x="587.988281"/>
       <use xlink:href="#DejaVuSans-7a" x="615.771484"/>
       <use xlink:href="#DejaVuSans-65" x="668.261719"/>
       <use xlink:href="#DejaVuSans-20" x="729.785156"/>
       <use xlink:href="#DejaVuSans-6f" x="761.572266"/>
       <use xlink:href="#DejaVuSans-66" x="822.753906"/>
       <use xlink:href="#DejaVuSans-20" x="857.958984"/>
       <use xlink:href="#DejaVuSans-43" x="889.746094"/>
       <use xlink:href="#DejaVuSans-6f" x="959.570312"/>
       <use xlink:href="#DejaVuSans-64" x="1020.751953"/>
       <use xlink:href="#DejaVuSans-65" x="1084.228516"/>
       <use xlink:href="#DejaVuSans-20" x="1145.751953"/>
       <use xlink:href="#DejaVuSans-43" x="1177.539062"/>
       <use xlink:href="#DejaVuSans-68" x="1247.363281"/>
       <use xlink:href="#DejaVuSans-75" x="1310.742188"/>
       <use xlink:href="#DejaVuSans-72" x="1374.121094"/>
       <use xlink:href="#DejaVuSans-6e" x="1413.484375"/>
       <use xlink:href="#DejaVuSans-73" x="1476.863281"/>
      </g>
     </g>
    </g>
   </g>
   <g id="matplotlib.axis_2">
    <g id="ytick_1">
     <g id="line2d_4">
      <defs>
       <path id="me35b6f71a0" d="M 0 0 
L -3.5 0 
" style="stroke: #000000; stroke-width: 0.8"/>
      </defs>
      <g>
       <use xlink:href="#me35b6f71a0" x="58.853125" y="671.576525" style="stroke: #000000; stroke-width: 0.8"/>
      </g>
     </g>
     <g id="text_4">
      <!-- 1 -->
      <g transform="translate(45.490625 675.375743) scale(0.1 -0.1)">
       <defs>
        <path id="DejaVuSans-31" d="M 794 531 
L 1825 531 
L 1825 4091 
L 703 3866 
L 703 4441 
L 1819 4666 
L 2450 4666 
L 2450 531 
L 3481 531 
L 3481 0 
L 794 0 
L 794 531 
z
" transform="scale(0.015625)"/>
       </defs>
       <use xlink:href="#DejaVuSans-31"/>
      </g>
     </g>
    </g>
    <g id="ytick_2">
     <g id="line2d_5">
      <g>
       <use xlink:href="#me35b6f71a0" x="58.853125" y="545.670074" style="stroke: #000000; stroke-width: 0.8"/>
      </g>
     </g>
     <g id="text_5">
      <!-- 10 -->
      <g transform="translate(39.128125 549.469292) scale(0.1 -0.1)">
       <defs>
        <path id="DejaVuSans-30" d="M 2034 4250 
Q 1547 4250 1301 3770 
Q 1056 3291 1056 2328 
Q 1056 1369 1301 889 
Q 1547 409 2034 409 
Q 2525 409 2770 889 
Q 3016 1369 3016 2328 
Q 3016 3291 2770 3770 
Q 2525 4250 2034 4250 
z
M 2034 4750 
Q 2819 4750 3233 4129 
Q 3647 3509 3647 2328 
Q 3647 1150 3233 529 
Q 2819 -91 2034 -91 
Q 1250 -91 836 529 
Q 422 1150 422 2328 
Q 422 3509 836 4129 
Q 1250 4750 2034 4750 
z
" transform="scale(0.015625)"/>
       </defs>
       <use xlink:href="#DejaVuSans-31"/>
       <use xlink:href="#DejaVuSans-30" x="63.623047"/>
      </g>
     </g>
    </g>
    <g id="ytick_3">
     <g id="line2d_6">
      <g>
       <use xlink:href="#me35b6f71a0" x="58.853125" y="419.763623" style="stroke: #000000; stroke-width: 0.8"/>
      </g>
     </g>
     <g id="text_6">
      <!-- 100 -->
      <g transform="translate(32.765625 423.562841) scale(0.1 -0.1)">
       <use xlink:href="#DejaVuSans-31"/>
       <use xlink:href="#DejaVuSans-30" x="63.623047"/>
       <use xlink:href="#DejaVuSans-30" x="127.246094"/>
      </g>
     </g>
    </g>
    <g id="ytick_4">
     <g id="line2d_7">
      <g>
       <use xlink:href="#me35b6f71a0" x="58.853125" y="293.857172" style="stroke: #000000; stroke-width: 0.8"/>
      </g>
     </g>
     <g id="text_7">
      <!-- 1000 -->
      <g transform="translate(26.403125 297.656391) scale(0.1 -0.1)">
       <use xlink:href="#DejaVuSans-31"/>
       <use xlink:href="#DejaVuSans-30" x="63.623047"/>
       <use xlink:href="#DejaVuSans-30" x="127.246094"/>
       <use xlink:href="#DejaVuSans-30" x="190.869141"/>
      </g>
     </g>
    </g>
    <g id="ytick_5">
     <g id="line2d_8">
      <g>
       <use xlink:href="#me35b6f71a0" x="58.853125" y="167.950721" style="stroke: #000000; stroke-width: 0.8"/>
      </g>
     </g>
     <g id="text_8">
      <!-- 10000 -->
      <g transform="translate(20.040625 171.74994) scale(0.1 -0.1)">
       <use xlink:href="#DejaVuSans-31"/>
       <use xlink:href="#DejaVuSans-30" x="63.623047"/>
       <use xlink:href="#DejaVuSans-30" x="127.246094"/>
       <use xlink:href="#DejaVuSans-30" x="190.869141"/>
       <use xlink:href="#DejaVuSans-30" x="254.492188"/>
      </g>
     </g>
    </g>
    <g id="ytick_6">
     <g id="line2d_9">
      <g>
       <use xlink:href="#me35b6f71a0" x="58.853125" y="42.04427" style="stroke: #000000; stroke-width: 0.8"/>
      </g>
     </g>
     <g id="text_9">
      <!-- 100000 -->
      <g transform="translate(13.678125 45.843489) scale(0.1 -0.1)">
       <use xlink:href="#DejaVuSans-31"/>
       <use xlink:href="#DejaVuSans-30" x="63.623047"/>
       <use xlink:href="#DejaVuSans-30" x="127.246094"/>
       <use xlink:href="#DejaVuSans-30" x="190.869141"/>
       <use xlink:href="#DejaVuSans-30" x="254.492188"/>
       <use xlink:href="#DejaVuSans-30" x="318.115234"/>
      </g>
     </g>
    </g>
    <g id="ytick_7">
     <g id="line2d_10">
      <defs>
       <path id="mbaf722da33" d="M 0 0 
L -2 0 
" style="stroke: #000000; stroke-width: 0.6"/>
      </defs>
      <g>
       <use xlink:href="#mbaf722da33" x="58.853125" y="677.337688" style="stroke: #000000; stroke-width: 0.6"/>
      </g>
     </g>
    </g>
    <g id="ytick_8">
     <g id="line2d_11">
      <g>
       <use xlink:href="#mbaf722da33" x="58.853125" y="633.674906" style="stroke: #000000; stroke-width: 0.6"/>
      </g>
     </g>
    </g>
    <g id="ytick_9">
     <g id="line2d_12">
      <g>
       <use xlink:href="#mbaf722da33" x="58.853125" y="611.503881" style="stroke: #000000; stroke-width: 0.6"/>
      </g>
     </g>
    </g>
    <g id="ytick_10">
     <g id="line2d_13">
      <g>
       <use xlink:href="#mbaf722da33" x="58.853125" y="595.773288" style="stroke: #000000; stroke-width: 0.6"/>
      </g>
     </g>
    </g>
    <g id="ytick_11">
     <g id="line2d_14">
      <g>
       <use xlink:href="#mbaf722da33" x="58.853125" y="583.571692" style="stroke: #000000; stroke-width: 0.6"/>
      </g>
     </g>
    </g>
    <g id="ytick_12">
     <g id="line2d_15">
      <g>
       <use xlink:href="#mbaf722da33" x="58.853125" y="573.602262" style="stroke: #000000; stroke-width: 0.6"/>
      </g>
     </g>
    </g>
    <g id="ytick_13">
     <g id="line2d_16">
      <g>
       <use xlink:href="#mbaf722da33" x="58.853125" y="565.17323" style="stroke: #000000; stroke-width: 0.6"/>
      </g>
     </g>
    </g>
    <g id="ytick_14">
     <g id="line2d_17">
      <g>
       <use xlink:href="#mbaf722da33" x="58.853125" y="557.871669" style="stroke: #000000; stroke-width: 0.6"/>
      </g>
     </g>
    </g>
    <g id="ytick_15">
     <g id="line2d_18">
      <g>
       <use xlink:href="#mbaf722da33" x="58.853125" y="551.431237" style="stroke: #000000; stroke-width: 0.6"/>
      </g>
     </g>
    </g>
    <g id="ytick_16">
     <g id="line2d_19">
      <g>
       <use xlink:href="#mbaf722da33" x="58.853125" y="507.768455" style="stroke: #000000; stroke-width: 0.6"/>
      </g>
     </g>
    </g>
    <g id="ytick_17">
     <g id="line2d_20">
      <g>
       <use xlink:href="#mbaf722da33" x="58.853125" y="485.59743" style="stroke: #000000; stroke-width: 0.6"/>
      </g>
     </g>
    </g>
    <g id="ytick_18">
     <g id="line2d_21">
      <g>
       <use xlink:href="#mbaf722da33" x="58.853125" y="469.866837" style="stroke: #000000; stroke-width: 0.6"/>
      </g>
     </g>
    </g>
    <g id="ytick_19">
     <g id="line2d_22">
      <g>
       <use xlink:href="#mbaf722da33" x="58.853125" y="457.665241" style="stroke: #000000; stroke-width: 0.6"/>
      </g>
     </g>
    </g>
    <g id="ytick_20">
     <g id="line2d_23">
      <g>
       <use xlink:href="#mbaf722da33" x="58.853125" y="447.695811" style="stroke: #000000; stroke-width: 0.6"/>
      </g>
     </g>
    </g>
    <g id="ytick_21">
     <g id="line2d_24">
      <g>
       <use xlink:href="#mbaf722da33" x="58.853125" y="439.266779" style="stroke: #000000; stroke-width: 0.6"/>
      </g>
     </g>
    </g>
    <g id="ytick_22">
     <g id="line2d_25">
      <g>
       <use xlink:href="#mbaf722da33" x="58.853125" y="431.965219" style="stroke: #000000; stroke-width: 0.6"/>
      </g>
     </g>
    </g>
    <g id="ytick_23">
     <g id="line2d_26">
      <g>
       <use xlink:href="#mbaf722da33" x="58.853125" y="425.524786" style="stroke: #000000; stroke-width: 0.6"/>
      </g>
     </g>
    </g>
    <g id="ytick_24">
     <g id="line2d_27">
      <g>
       <use xlink:href="#mbaf722da33" x="58.853125" y="381.862004" style="stroke: #000000; stroke-width: 0.6"/>
      </g>
     </g>
    </g>
    <g id="ytick_25">
     <g id="line2d_28">
      <g>
       <use xlink:href="#mbaf722da33" x="58.853125" y="359.690979" style="stroke: #000000; stroke-width: 0.6"/>
      </g>
     </g>
    </g>
    <g id="ytick_26">
     <g id="line2d_29">
      <g>
       <use xlink:href="#mbaf722da33" x="58.853125" y="343.960386" style="stroke: #000000; stroke-width: 0.6"/>
      </g>
     </g>
    </g>
    <g id="ytick_27">
     <g id="line2d_30">
      <g>
       <use xlink:href="#mbaf722da33" x="58.853125" y="331.75879" style="stroke: #000000; stroke-width: 0.6"/>
      </g>
     </g>
    </g>
    <g id="ytick_28">
     <g id="line2d_31">
      <g>
       <use xlink:href="#mbaf722da33" x="58.853125" y="321.789361" style="stroke: #000000; stroke-width: 0.6"/>
      </g>
     </g>
    </g>
    <g id="ytick_29">
     <g id="line2d_32">
      <g>
       <use xlink:href="#mbaf722da33" x="58.853125" y="313.360328" style="stroke: #000000; stroke-width: 0.6"/>
      </g>
     </g>
    </g>
    <g id="ytick_30">
     <g id="line2d_33">
      <g>
       <use xlink:href="#mbaf722da33" x="58.853125" y="306.058768" style="stroke: #000000; stroke-width: 0.6"/>
      </g>
     </g>
    </g>
    <g id="ytick_31">
     <g id="line2d_34">
      <g>
       <use xlink:href="#mbaf722da33" x="58.853125" y="299.618335" style="stroke: #000000; stroke-width: 0.6"/>
      </g>
     </g>
    </g>
    <g id="ytick_32">
     <g id="line2d_35">
      <g>
       <use xlink:href="#mbaf722da33" x="58.853125" y="255.955553" style="stroke: #000000; stroke-width: 0.6"/>
      </g>
     </g>
    </g>
    <g id="ytick_33">
     <g id="line2d_36">
      <g>
       <use xlink:href="#mbaf722da33" x="58.853125" y="233.784528" style="stroke: #000000; stroke-width: 0.6"/>
      </g>
     </g>
    </g>
    <g id="ytick_34">
     <g id="line2d_37">
      <g>
       <use xlink:href="#mbaf722da33" x="58.853125" y="218.053935" style="stroke: #000000; stroke-width: 0.6"/>
      </g>
     </g>
    </g>
    <g id="ytick_35">
     <g id="line2d_38">
      <g>
       <use xlink:href="#mbaf722da33" x="58.853125" y="205.852339" style="stroke: #000000; stroke-width: 0.6"/>
      </g>
     </g>
    </g>
    <g id="ytick_36">
     <g id="line2d_39">
      <g>
       <use xlink:href="#mbaf722da33" x="58.853125" y="195.88291" style="stroke: #000000; stroke-width: 0.6"/>
      </g>
     </g>
    </g>
    <g id="ytick_37">
     <g id="line2d_40">
      <g>
       <use xlink:href="#mbaf722da33" x="58.853125" y="187.453877" style="stroke: #000000; stroke-width: 0.6"/>
      </g>
     </g>
    </g>
    <g id="ytick_38">
     <g id="line2d_41">
      <g>
       <use xlink:href="#mbaf722da33" x="58.853125" y="180.152317" style="stroke: #000000; stroke-width: 0.6"/>
      </g>
     </g>
    </g>
    <g id="ytick_39">
     <g id="line2d_42">
      <g>
       <use xlink:href="#mbaf722da33" x="58.853125" y="173.711884" style="stroke: #000000; stroke-width: 0.6"/>
      </g>
     </g>
    </g>
    <g id="ytick_40">
     <g id="line2d_43">
      <g>
       <use xlink:href="#mbaf722da33" x="58.853125" y="130.049103" style="stroke: #000000; stroke-width: 0.6"/>
      </g>
     </g>
    </g>
    <g id="ytick_41">
     <g id="line2d_44">
      <g>
       <use xlink:href="#mbaf722da33" x="58.853125" y="107.878077" style="stroke: #000000; stroke-width: 0.6"/>
      </g>
     </g>
    </g>
    <g id="ytick_42">
     <g id="line2d_45">
      <g>
       <use xlink:href="#mbaf722da33" x="58.853125" y="92.147484" style="stroke: #000000; stroke-width: 0.6"/>
      </g>
     </g>
    </g>
    <g id="ytick_43">
     <g id="line2d_46">
      <g>
       <use xlink:href="#mbaf722da33" x="58.853125" y="79.945888" style="stroke: #000000; stroke-width: 0.6"/>
      </g>
     </g>
    </g>
    <g id="ytick_44">
     <g id="line2d_47">
      <g>
       <use xlink:href="#mbaf722da33" x="58.853125" y="69.976459" style="stroke: #000000; stroke-width: 0.6"/>
      </g>
     </g>
    </g>
    <g id="ytick_45">
     <g id="line2d_48">
      <g>
       <use xlink:href="#mbaf722da33" x="58.853125" y="61.547426" style="stroke: #000000; stroke-width: 0.6"/>
      </g>
     </g>
    </g>
    <g id="ytick_46">
     <g id="line2d_49">
      <g>
       <use xlink:href="#mbaf722da33" x="58.853125" y="54.245866" style="stroke: #000000; stroke-width: 0.6"/>
      </g>
     </g>
    </g>
    <g id="ytick_47">
     <g id="line2d_50">
      <g>
       <use xlink:href="#mbaf722da33" x="58.853125" y="47.805433" style="stroke: #000000; stroke-width: 0.6"/>
      </g>
     </g>
    </g>
    <g id="ytick_48">
     <g id="line2d_51">
      <g>
       <use xlink:href="#mbaf722da33" x="58.853125" y="4.142652" style="stroke: #000000; stroke-width: 0.6"/>
      </g>
     </g>
    </g>
    <g id="text_10">
     <!-- Average Value -->
     <g transform="translate(7.598437 376.513125) rotate(-90) scale(0.1 -0.1)">
      <defs>
       <path id="DejaVuSans-56" d="M 1831 0 
L 50 4666 
L 709 4666 
L 2188 738 
L 3669 4666 
L 4325 4666 
L 2547 0 
L 1831 0 
z
" transform="scale(0.015625)"/>
      </defs>
      <use xlink:href="#DejaVuSans-41"/>
      <use xlink:href="#DejaVuSans-76" x="62.533203"/>
      <use xlink:href="#DejaVuSans-65" x="121.712891"/>
      <use xlink:href="#DejaVuSans-72" x="183.236328"/>
      <use xlink:href="#DejaVuSans-61" x="224.349609"/>
      <use xlink:href="#DejaVuSans-67" x="285.628906"/>
      <use xlink:href="#DejaVuSans-65" x="349.105469"/>
      <use xlink:href="#DejaVuSans-20" x="410.628906"/>
      <use xlink:href="#DejaVuSans-56" x="442.416016"/>
      <use xlink:href="#DejaVuSans-61" x="503.074219"/>
      <use xlink:href="#DejaVuSans-6c" x="564.353516"/>
      <use xlink:href="#DejaVuSans-75" x="592.136719"/>
      <use xlink:href="#DejaVuSans-65" x="655.515625"/>
     </g>
    </g>
   </g>
   <g id="patch_3">
    <path d="M 80.167458 433.80368 
L 250.682125 433.80368 
L 250.682125 310.524916 
L 80.167458 310.524916 
L 80.167458 433.80368 
z
" clip-path="url(#pafd287412b)" style="fill: #3274a1; stroke: #3d3d3d; stroke-linejoin: miter"/>
   </g>
   <g id="line2d_52">
    <path d="M 165.424792 433.80368 
L 165.424792 650.350909 
" clip-path="url(#pafd287412b)" style="fill: none; stroke: #3d3d3d"/>
   </g>
   <g id="line2d_53">
    <path d="M 165.424792 310.524916 
L 165.424792 273.439104 
" clip-path="url(#pafd287412b)" style="fill: none; stroke: #3d3d3d"/>
   </g>
   <g id="line2d_54">
    <path d="M 122.796125 650.350909 
L 208.053458 650.350909 
" clip-path="url(#pafd287412b)" style="fill: none; stroke: #3d3d3d; stroke-linecap: square"/>
   </g>
   <g id="line2d_55">
    <path d="M 122.796125 273.439104 
L 208.053458 273.439104 
" clip-path="url(#pafd287412b)" style="fill: none; stroke: #3d3d3d; stroke-linecap: square"/>
   </g>
   <g id="line2d_56">
    <defs>
     <path id="ma903ff2efe" d="M 0 3 
C 0.795609 3 1.55874 2.683901 2.12132 2.12132 
C 2.683901 1.55874 3 0.795609 3 0 
C 3 -0.795609 2.683901 -1.55874 2.12132 -2.12132 
C 1.55874 -2.683901 0.795609 -3 0 -3 
C -0.795609 -3 -1.55874 -2.683901 -2.12132 -2.12132 
C -2.683901 -1.55874 -3 -0.795609 -3 0 
C -3 0.795609 -2.683901 1.55874 -2.12132 2.12132 
C -1.55874 2.683901 -0.795609 3 0 3 
z
" style="stroke: #3d3d3d"/>
    </defs>
    <g clip-path="url(#pafd287412b)">
     <use xlink:href="#ma903ff2efe" x="165.424792" y="185.872221" style="fill-opacity: 0; stroke: #3d3d3d"/>
     <use xlink:href="#ma903ff2efe" x="165.424792" y="241.65332" style="fill-opacity: 0; stroke: #3d3d3d"/>
     <use xlink:href="#ma903ff2efe" x="165.424792" y="100.089774" style="fill-opacity: 0; stroke: #3d3d3d"/>
     <use xlink:href="#ma903ff2efe" x="165.424792" y="205.599292" style="fill-opacity: 0; stroke: #3d3d3d"/>
     <use xlink:href="#ma903ff2efe" x="165.424792" y="229.028181" style="fill-opacity: 0; stroke: #3d3d3d"/>
     <use xlink:href="#ma903ff2efe" x="165.424792" y="235.315998" style="fill-opacity: 0; stroke: #3d3d3d"/>
     <use xlink:href="#ma903ff2efe" x="165.424792" y="195.853544" style="fill-opacity: 0; stroke: #3d3d3d"/>
     <use xlink:href="#ma903ff2efe" x="165.424792" y="218.56802" style="fill-opacity: 0; stroke: #3d3d3d"/>
     <use xlink:href="#ma903ff2efe" x="165.424792" y="259.953667" style="fill-opacity: 0; stroke: #3d3d3d"/>
     <use xlink:href="#ma903ff2efe" x="165.424792" y="232.60438" style="fill-opacity: 0; stroke: #3d3d3d"/>
     <use xlink:href="#ma903ff2efe" x="165.424792" y="215.378351" style="fill-opacity: 0; stroke: #3d3d3d"/>
     <use xlink:href="#ma903ff2efe" x="165.424792" y="56.903411" style="fill-opacity: 0; stroke: #3d3d3d"/>
     <use xlink:href="#ma903ff2efe" x="165.424792" y="235.778314" style="fill-opacity: 0; stroke: #3d3d3d"/>
     <use xlink:href="#ma903ff2efe" x="165.424792" y="233.070892" style="fill-opacity: 0; stroke: #3d3d3d"/>
     <use xlink:href="#ma903ff2efe" x="165.424792" y="225.717898" style="fill-opacity: 0; stroke: #3d3d3d"/>
     <use xlink:href="#ma903ff2efe" x="165.424792" y="30.969091" style="fill-opacity: 0; stroke: #3d3d3d"/>
    </g>
   </g>
   <g id="patch_4">
    <path d="M 293.310792 439.434149 
L 463.825458 439.434149 
L 463.825458 310.441461 
L 293.310792 310.441461 
L 293.310792 439.434149 
z
" clip-path="url(#pafd287412b)" style="fill: #e1812c; stroke: #3d3d3d; stroke-linejoin: miter"/>
   </g>
   <g id="line2d_57">
    <path d="M 378.568125 439.434149 
L 378.568125 648.217669 
" clip-path="url(#pafd287412b)" style="fill: none; stroke: #3d3d3d"/>
   </g>
   <g id="line2d_58">
    <path d="M 378.568125 310.441461 
L 378.568125 267.500617 
" clip-path="url(#pafd287412b)" style="fill: none; stroke: #3d3d3d"/>
   </g>
   <g id="line2d_59">
    <path d="M 335.939458 648.217669 
L 421.196792 648.217669 
" clip-path="url(#pafd287412b)" style="fill: none; stroke: #3d3d3d; stroke-linecap: square"/>
   </g>
   <g id="line2d_60">
    <path d="M 335.939458 267.500617 
L 421.196792 267.500617 
" clip-path="url(#pafd287412b)" style="fill: none; stroke: #3d3d3d; stroke-linecap: square"/>
   </g>
   <g id="line2d_61">
    <g clip-path="url(#pafd287412b)">
     <use xlink:href="#ma903ff2efe" x="378.568125" y="185.879315" style="fill-opacity: 0; stroke: #3d3d3d"/>
     <use xlink:href="#ma903ff2efe" x="378.568125" y="100.119083" style="fill-opacity: 0; stroke: #3d3d3d"/>
     <use xlink:href="#ma903ff2efe" x="378.568125" y="205.753583" style="fill-opacity: 0; stroke: #3d3d3d"/>
     <use xlink:href="#ma903ff2efe" x="378.568125" y="199.286039" style="fill-opacity: 0; stroke: #3d3d3d"/>
     <use xlink:href="#ma903ff2efe" x="378.568125" y="236.122879" style="fill-opacity: 0; stroke: #3d3d3d"/>
     <use xlink:href="#ma903ff2efe" x="378.568125" y="226.541518" style="fill-opacity: 0; stroke: #3d3d3d"/>
     <use xlink:href="#ma903ff2efe" x="378.568125" y="156.629328" style="fill-opacity: 0; stroke: #3d3d3d"/>
     <use xlink:href="#ma903ff2efe" x="378.568125" y="218.651199" style="fill-opacity: 0; stroke: #3d3d3d"/>
     <use xlink:href="#ma903ff2efe" x="378.568125" y="232.655616" style="fill-opacity: 0; stroke: #3d3d3d"/>
     <use xlink:href="#ma903ff2efe" x="378.568125" y="215.378351" style="fill-opacity: 0; stroke: #3d3d3d"/>
     <use xlink:href="#ma903ff2efe" x="378.568125" y="56.930554" style="fill-opacity: 0; stroke: #3d3d3d"/>
     <use xlink:href="#ma903ff2efe" x="378.568125" y="235.78823" style="fill-opacity: 0; stroke: #3d3d3d"/>
     <use xlink:href="#ma903ff2efe" x="378.568125" y="225.788678" style="fill-opacity: 0; stroke: #3d3d3d"/>
     <use xlink:href="#ma903ff2efe" x="378.568125" y="30.987626" style="fill-opacity: 0; stroke: #3d3d3d"/>
    </g>
   </g>
   <g id="patch_5">
    <path d="M 506.454125 418.087863 
L 676.968792 418.087863 
L 676.968792 308.207651 
L 506.454125 308.207651 
L 506.454125 418.087863 
z
" clip-path="url(#pafd287412b)" style="fill: #3a923a; stroke: #3d3d3d; stroke-linejoin: miter"/>
   </g>
   <g id="line2d_62">
    <path d="M 591.711458 418.087863 
L 591.711458 645.555794 
" clip-path="url(#pafd287412b)" style="fill: none; stroke: #3d3d3d"/>
   </g>
   <g id="line2d_63">
    <path d="M 591.711458 308.207651 
L 591.711458 264.38719 
" clip-path="url(#pafd287412b)" style="fill: none; stroke: #3d3d3d"/>
   </g>
   <g id="line2d_64">
    <path d="M 549.082792 645.555794 
L 634.340125 645.555794 
" clip-path="url(#pafd287412b)" style="fill: none; stroke: #3d3d3d; stroke-linecap: square"/>
   </g>
   <g id="line2d_65">
    <path d="M 549.082792 264.38719 
L 634.340125 264.38719 
" clip-path="url(#pafd287412b)" style="fill: none; stroke: #3d3d3d; stroke-linecap: square"/>
   </g>
   <g id="line2d_66">
    <g clip-path="url(#pafd287412b)">
     <use xlink:href="#ma903ff2efe" x="591.711458" y="185.872881" style="fill-opacity: 0; stroke: #3d3d3d"/>
     <use xlink:href="#ma903ff2efe" x="591.711458" y="241.728814" style="fill-opacity: 0; stroke: #3d3d3d"/>
     <use xlink:href="#ma903ff2efe" x="591.711458" y="100.089598" style="fill-opacity: 0; stroke: #3d3d3d"/>
     <use xlink:href="#ma903ff2efe" x="591.711458" y="205.677851" style="fill-opacity: 0; stroke: #3d3d3d"/>
     <use xlink:href="#ma903ff2efe" x="591.711458" y="198.668824" style="fill-opacity: 0; stroke: #3d3d3d"/>
     <use xlink:href="#ma903ff2efe" x="591.711458" y="227.291401" style="fill-opacity: 0; stroke: #3d3d3d"/>
     <use xlink:href="#ma903ff2efe" x="591.711458" y="172.085172" style="fill-opacity: 0; stroke: #3d3d3d"/>
     <use xlink:href="#ma903ff2efe" x="591.711458" y="146.611128" style="fill-opacity: 0; stroke: #3d3d3d"/>
     <use xlink:href="#ma903ff2efe" x="591.711458" y="218.574759" style="fill-opacity: 0; stroke: #3d3d3d"/>
     <use xlink:href="#ma903ff2efe" x="591.711458" y="259.995268" style="fill-opacity: 0; stroke: #3d3d3d"/>
     <use xlink:href="#ma903ff2efe" x="591.711458" y="232.608408" style="fill-opacity: 0; stroke: #3d3d3d"/>
     <use xlink:href="#ma903ff2efe" x="591.711458" y="215.378351" style="fill-opacity: 0; stroke: #3d3d3d"/>
     <use xlink:href="#ma903ff2efe" x="591.711458" y="56.906901" style="fill-opacity: 0; stroke: #3d3d3d"/>
     <use xlink:href="#ma903ff2efe" x="591.711458" y="235.742837" style="fill-opacity: 0; stroke: #3d3d3d"/>
     <use xlink:href="#ma903ff2efe" x="591.711458" y="225.716606" style="fill-opacity: 0; stroke: #3d3d3d"/>
     <use xlink:href="#ma903ff2efe" x="591.711458" y="30.971742" style="fill-opacity: 0; stroke: #3d3d3d"/>
    </g>
   </g>
   <g id="line2d_67">
    <path d="M 80.167458 385.583609 
L 250.682125 385.583609 
" clip-path="url(#pafd287412b)" style="fill: none; stroke: #3d3d3d"/>
   </g>
   <g id="line2d_68">
    <path d="M 293.310792 392.545428 
L 463.825458 392.545428 
" clip-path="url(#pafd287412b)" style="fill: none; stroke: #3d3d3d"/>
   </g>
   <g id="line2d_69">
    <path d="M 506.454125 377.684373 
L 676.968792 377.684373 
" clip-path="url(#pafd287412b)" style="fill: none; stroke: #3d3d3d"/>
   </g>
   <g id="patch_6">
    <path d="M 58.853125 681.32 
L 58.853125 0 
" style="fill: none; stroke: #000000; stroke-width: 0.8; stroke-linejoin: miter; stroke-linecap: square"/>
   </g>
   <g id="patch_7">
    <path d="M 698.283125 681.32 
L 698.283125 0 
" style="fill: none; stroke: #000000; stroke-width: 0.8; stroke-linejoin: miter; stroke-linecap: square"/>
   </g>
   <g id="patch_8">
    <path d="M 58.853125 681.32 
L 698.283125 681.32 
" style="fill: none; stroke: #000000; stroke-width: 0.8; stroke-linejoin: miter; stroke-linecap: square"/>
   </g>
   <g id="patch_9">
    <path d="M 58.853125 0 
L 698.283125 0 
" style="fill: none; stroke: #000000; stroke-width: 0.8; stroke-linejoin: miter; stroke-linecap: square"/>
   </g>
  </g>
 </g>
 <defs>
  <clipPath id="pafd287412b">
   <rect x="58.853125" y="0" width="639.43" height="681.32"/>
  </clipPath>
 </defs>
</svg>
