<?xml version="1.0" encoding="utf-8" standalone="no"?>
<!DOCTYPE svg PUBLIC "-//W3C//DTD SVG 1.1//EN"
  "http://www.w3.org/Graphics/SVG/1.1/DTD/svg11.dtd">
<svg xmlns:xlink="http://www.w3.org/1999/xlink" width="698.18625pt" height="697.998125pt" viewBox="0 0 698.18625 697.998125" xmlns="http://www.w3.org/2000/svg" version="1.1">
 <metadata>
  <rdf:RDF xmlns:dc="http://purl.org/dc/elements/1.1/" xmlns:cc="http://creativecommons.org/ns#" xmlns:rdf="http://www.w3.org/1999/02/22-rdf-syntax-ns#">
   <cc:Work>
    <dc:type rdf:resource="http://purl.org/dc/dcmitype/StillImage"/>
    <dc:date>2024-04-11T15:28:34.708958</dc:date>
    <dc:format>image/svg+xml</dc:format>
    <dc:creator>
     <cc:Agent>
      <dc:title>Matplotlib v3.8.3, https://matplotlib.org/</dc:title>
     </cc:Agent>
    </dc:creator>
   </cc:Work>
  </rdf:RDF>
 </metadata>
 <defs>
  <style type="text/css">*{stroke-linejoin: round; stroke-linecap: butt}</style>
 </defs>
 <g id="figure_1">
  <g id="patch_1">
   <path d="M 0 697.998125 
L 698.18625 697.998125 
L 698.18625 0 
L 0 0 
z
" style="fill: #ffffff"/>
  </g>
  <g id="axes_1">
   <g id="patch_2">
    <path d="M 49.30625 681.32 
L 698.18625 681.32 
L 698.18625 0 
L 49.30625 0 
z
" style="fill: #ffffff"/>
   </g>
   <g id="matplotlib.axis_1">
    <g id="xtick_1">
     <g id="line2d_1">
      <defs>
       <path id="m8f833ae8ee" d="M 0 0 
L 0 3.5 
" style="stroke: #000000; stroke-width: 0.8"/>
      </defs>
      <g>
       <use xlink:href="#m8f833ae8ee" x="157.452917" y="681.32" style="stroke: #000000; stroke-width: 0.8"/>
      </g>
     </g>
     <g id="text_1">
      <!-- Min TPS Ratio -->
      <g transform="translate(123.325573 695.918438) scale(0.1 -0.1)">
       <defs>
        <path id="DejaVuSans-4d" d="M 628 4666 
L 1569 4666 
L 2759 1491 
L 3956 4666 
L 4897 4666 
L 4897 0 
L 4281 0 
L 4281 4097 
L 3078 897 
L 2444 897 
L 1241 4097 
L 1241 0 
L 628 0 
L 628 4666 
z
" transform="scale(0.015625)"/>
        <path id="DejaVuSans-69" d="M 603 3500 
L 1178 3500 
L 1178 0 
L 603 0 
L 603 3500 
z
M 603 4863 
L 1178 4863 
L 1178 4134 
L 603 4134 
L 603 4863 
z
" transform="scale(0.015625)"/>
        <path id="DejaVuSans-6e" d="M 3513 2113 
L 3513 0 
L 2938 0 
L 2938 2094 
Q 2938 2591 2744 2837 
Q 2550 3084 2163 3084 
Q 1697 3084 1428 2787 
Q 1159 2491 1159 1978 
L 1159 0 
L 581 0 
L 581 3500 
L 1159 3500 
L 1159 2956 
Q 1366 3272 1645 3428 
Q 1925 3584 2291 3584 
Q 2894 3584 3203 3211 
Q 3513 2838 3513 2113 
z
" transform="scale(0.015625)"/>
        <path id="DejaVuSans-20" transform="scale(0.015625)"/>
        <path id="DejaVuSans-54" d="M -19 4666 
L 3928 4666 
L 3928 4134 
L 2272 4134 
L 2272 0 
L 1638 0 
L 1638 4134 
L -19 4134 
L -19 4666 
z
" transform="scale(0.015625)"/>
        <path id="DejaVuSans-50" d="M 1259 4147 
L 1259 2394 
L 2053 2394 
Q 2494 2394 2734 2622 
Q 2975 2850 2975 3272 
Q 2975 3691 2734 3919 
Q 2494 4147 2053 4147 
L 1259 4147 
z
M 628 4666 
L 2053 4666 
Q 2838 4666 3239 4311 
Q 3641 3956 3641 3272 
Q 3641 2581 3239 2228 
Q 2838 1875 2053 1875 
L 1259 1875 
L 1259 0 
L 628 0 
L 628 4666 
z
" transform="scale(0.015625)"/>
        <path id="DejaVuSans-53" d="M 3425 4513 
L 3425 3897 
Q 3066 4069 2747 4153 
Q 2428 4238 2131 4238 
Q 1616 4238 1336 4038 
Q 1056 3838 1056 3469 
Q 1056 3159 1242 3001 
Q 1428 2844 1947 2747 
L 2328 2669 
Q 3034 2534 3370 2195 
Q 3706 1856 3706 1288 
Q 3706 609 3251 259 
Q 2797 -91 1919 -91 
Q 1588 -91 1214 -16 
Q 841 59 441 206 
L 441 856 
Q 825 641 1194 531 
Q 1563 422 1919 422 
Q 2459 422 2753 634 
Q 3047 847 3047 1241 
Q 3047 1584 2836 1778 
Q 2625 1972 2144 2069 
L 1759 2144 
Q 1053 2284 737 2584 
Q 422 2884 422 3419 
Q 422 4038 858 4394 
Q 1294 4750 2059 4750 
Q 2388 4750 2728 4690 
Q 3069 4631 3425 4513 
z
" transform="scale(0.015625)"/>
        <path id="DejaVuSans-52" d="M 2841 2188 
Q 3044 2119 3236 1894 
Q 3428 1669 3622 1275 
L 4263 0 
L 3584 0 
L 2988 1197 
Q 2756 1666 2539 1819 
Q 2322 1972 1947 1972 
L 1259 1972 
L 1259 0 
L 628 0 
L 628 4666 
L 2053 4666 
Q 2853 4666 3247 4331 
Q 3641 3997 3641 3322 
Q 3641 2881 3436 2590 
Q 3231 2300 2841 2188 
z
M 1259 4147 
L 1259 2491 
L 2053 2491 
Q 2509 2491 2742 2702 
Q 2975 2913 2975 3322 
Q 2975 3731 2742 3939 
Q 2509 4147 2053 4147 
L 1259 4147 
z
" transform="scale(0.015625)"/>
        <path id="DejaVuSans-61" d="M 2194 1759 
Q 1497 1759 1228 1600 
Q 959 1441 959 1056 
Q 959 750 1161 570 
Q 1363 391 1709 391 
Q 2188 391 2477 730 
Q 2766 1069 2766 1631 
L 2766 1759 
L 2194 1759 
z
M 3341 1997 
L 3341 0 
L 2766 0 
L 2766 531 
Q 2569 213 2275 61 
Q 1981 -91 1556 -91 
Q 1019 -91 701 211 
Q 384 513 384 1019 
Q 384 1609 779 1909 
Q 1175 2209 1959 2209 
L 2766 2209 
L 2766 2266 
Q 2766 2663 2505 2880 
Q 2244 3097 1772 3097 
Q 1472 3097 1187 3025 
Q 903 2953 641 2809 
L 641 3341 
Q 956 3463 1253 3523 
Q 1550 3584 1831 3584 
Q 2591 3584 2966 3190 
Q 3341 2797 3341 1997 
z
" transform="scale(0.015625)"/>
        <path id="DejaVuSans-74" d="M 1172 4494 
L 1172 3500 
L 2356 3500 
L 2356 3053 
L 1172 3053 
L 1172 1153 
Q 1172 725 1289 603 
Q 1406 481 1766 481 
L 2356 481 
L 2356 0 
L 1766 0 
Q 1100 0 847 248 
Q 594 497 594 1153 
L 594 3053 
L 172 3053 
L 172 3500 
L 594 3500 
L 594 4494 
L 1172 4494 
z
" transform="scale(0.015625)"/>
        <path id="DejaVuSans-6f" d="M 1959 3097 
Q 1497 3097 1228 2736 
Q 959 2375 959 1747 
Q 959 1119 1226 758 
Q 1494 397 1959 397 
Q 2419 397 2687 759 
Q 2956 1122 2956 1747 
Q 2956 2369 2687 2733 
Q 2419 3097 1959 3097 
z
M 1959 3584 
Q 2709 3584 3137 3096 
Q 3566 2609 3566 1747 
Q 3566 888 3137 398 
Q 2709 -91 1959 -91 
Q 1206 -91 779 398 
Q 353 888 353 1747 
Q 353 2609 779 3096 
Q 1206 3584 1959 3584 
z
" transform="scale(0.015625)"/>
       </defs>
       <use xlink:href="#DejaVuSans-4d"/>
       <use xlink:href="#DejaVuSans-69" x="86.279297"/>
       <use xlink:href="#DejaVuSans-6e" x="114.0625"/>
       <use xlink:href="#DejaVuSans-20" x="177.441406"/>
       <use xlink:href="#DejaVuSans-54" x="209.228516"/>
       <use xlink:href="#DejaVuSans-50" x="270.3125"/>
       <use xlink:href="#DejaVuSans-53" x="330.615234"/>
       <use xlink:href="#DejaVuSans-20" x="394.091797"/>
       <use xlink:href="#DejaVuSans-52" x="425.878906"/>
       <use xlink:href="#DejaVuSans-61" x="493.111328"/>
       <use xlink:href="#DejaVuSans-74" x="554.390625"/>
       <use xlink:href="#DejaVuSans-69" x="593.599609"/>
       <use xlink:href="#DejaVuSans-6f" x="621.382812"/>
      </g>
     </g>
    </g>
    <g id="xtick_2">
     <g id="line2d_2">
      <g>
       <use xlink:href="#m8f833ae8ee" x="373.74625" y="681.32" style="stroke: #000000; stroke-width: 0.8"/>
      </g>
     </g>
     <g id="text_2">
      <!-- Mean TPS Ratio -->
      <g transform="translate(334.867344 695.918438) scale(0.1 -0.1)">
       <defs>
        <path id="DejaVuSans-65" d="M 3597 1894 
L 3597 1613 
L 953 1613 
Q 991 1019 1311 708 
Q 1631 397 2203 397 
Q 2534 397 2845 478 
Q 3156 559 3463 722 
L 3463 178 
Q 3153 47 2828 -22 
Q 2503 -91 2169 -91 
Q 1331 -91 842 396 
Q 353 884 353 1716 
Q 353 2575 817 3079 
Q 1281 3584 2069 3584 
Q 2775 3584 3186 3129 
Q 3597 2675 3597 1894 
z
M 3022 2063 
Q 3016 2534 2758 2815 
Q 2500 3097 2075 3097 
Q 1594 3097 1305 2825 
Q 1016 2553 972 2059 
L 3022 2063 
z
" transform="scale(0.015625)"/>
       </defs>
       <use xlink:href="#DejaVuSans-4d"/>
       <use xlink:href="#DejaVuSans-65" x="86.279297"/>
       <use xlink:href="#DejaVuSans-61" x="147.802734"/>
       <use xlink:href="#DejaVuSans-6e" x="209.082031"/>
       <use xlink:href="#DejaVuSans-20" x="272.460938"/>
       <use xlink:href="#DejaVuSans-54" x="304.248047"/>
       <use xlink:href="#DejaVuSans-50" x="365.332031"/>
       <use xlink:href="#DejaVuSans-53" x="425.634766"/>
       <use xlink:href="#DejaVuSans-20" x="489.111328"/>
       <use xlink:href="#DejaVuSans-52" x="520.898438"/>
       <use xlink:href="#DejaVuSans-61" x="588.130859"/>
       <use xlink:href="#DejaVuSans-74" x="649.410156"/>
       <use xlink:href="#DejaVuSans-69" x="688.619141"/>
       <use xlink:href="#DejaVuSans-6f" x="716.402344"/>
      </g>
     </g>
    </g>
    <g id="xtick_3">
     <g id="line2d_3">
      <g>
       <use xlink:href="#m8f833ae8ee" x="590.039583" y="681.32" style="stroke: #000000; stroke-width: 0.8"/>
      </g>
     </g>
     <g id="text_3">
      <!-- Max TPS Ratio -->
      <g transform="translate(554.446615 695.918438) scale(0.1 -0.1)">
       <defs>
        <path id="DejaVuSans-78" d="M 3513 3500 
L 2247 1797 
L 3578 0 
L 2900 0 
L 1881 1375 
L 863 0 
L 184 0 
L 1544 1831 
L 300 3500 
L 978 3500 
L 1906 2253 
L 2834 3500 
L 3513 3500 
z
" transform="scale(0.015625)"/>
       </defs>
       <use xlink:href="#DejaVuSans-4d"/>
       <use xlink:href="#DejaVuSans-61" x="86.279297"/>
       <use xlink:href="#DejaVuSans-78" x="147.558594"/>
       <use xlink:href="#DejaVuSans-20" x="206.738281"/>
       <use xlink:href="#DejaVuSans-54" x="238.525391"/>
       <use xlink:href="#DejaVuSans-50" x="299.609375"/>
       <use xlink:href="#DejaVuSans-53" x="359.912109"/>
       <use xlink:href="#DejaVuSans-20" x="423.388672"/>
       <use xlink:href="#DejaVuSans-52" x="455.175781"/>
       <use xlink:href="#DejaVuSans-61" x="522.408203"/>
       <use xlink:href="#DejaVuSans-74" x="583.6875"/>
       <use xlink:href="#DejaVuSans-69" x="622.896484"/>
       <use xlink:href="#DejaVuSans-6f" x="650.679688"/>
      </g>
     </g>
    </g>
   </g>
   <g id="matplotlib.axis_2">
    <g id="ytick_1">
     <g id="line2d_4">
      <defs>
       <path id="md37f72de0c" d="M 0 0 
L -3.5 0 
" style="stroke: #000000; stroke-width: 0.8"/>
      </defs>
      <g>
       <use xlink:href="#md37f72de0c" x="49.30625" y="650.652291" style="stroke: #000000; stroke-width: 0.8"/>
      </g>
     </g>
     <g id="text_4">
      <!-- 0.000 -->
      <g transform="translate(13.678125 654.451509) scale(0.1 -0.1)">
       <defs>
        <path id="DejaVuSans-30" d="M 2034 4250 
Q 1547 4250 1301 3770 
Q 1056 3291 1056 2328 
Q 1056 1369 1301 889 
Q 1547 409 2034 409 
Q 2525 409 2770 889 
Q 3016 1369 3016 2328 
Q 3016 3291 2770 3770 
Q 2525 4250 2034 4250 
z
M 2034 4750 
Q 2819 4750 3233 4129 
Q 3647 3509 3647 2328 
Q 3647 1150 3233 529 
Q 2819 -91 2034 -91 
Q 1250 -91 836 529 
Q 422 1150 422 2328 
Q 422 3509 836 4129 
Q 1250 4750 2034 4750 
z
" transform="scale(0.015625)"/>
        <path id="DejaVuSans-2e" d="M 684 794 
L 1344 794 
L 1344 0 
L 684 0 
L 684 794 
z
" transform="scale(0.015625)"/>
       </defs>
       <use xlink:href="#DejaVuSans-30"/>
       <use xlink:href="#DejaVuSans-2e" x="63.623047"/>
       <use xlink:href="#DejaVuSans-30" x="95.410156"/>
       <use xlink:href="#DejaVuSans-30" x="159.033203"/>
       <use xlink:href="#DejaVuSans-30" x="222.65625"/>
      </g>
     </g>
    </g>
    <g id="ytick_2">
     <g id="line2d_5">
      <g>
       <use xlink:href="#md37f72de0c" x="49.30625" y="560.260447" style="stroke: #000000; stroke-width: 0.8"/>
      </g>
     </g>
     <g id="text_5">
      <!-- 0.025 -->
      <g transform="translate(13.678125 564.059666) scale(0.1 -0.1)">
       <defs>
        <path id="DejaVuSans-32" d="M 1228 531 
L 3431 531 
L 3431 0 
L 469 0 
L 469 531 
Q 828 903 1448 1529 
Q 2069 2156 2228 2338 
Q 2531 2678 2651 2914 
Q 2772 3150 2772 3378 
Q 2772 3750 2511 3984 
Q 2250 4219 1831 4219 
Q 1534 4219 1204 4116 
Q 875 4013 500 3803 
L 500 4441 
Q 881 4594 1212 4672 
Q 1544 4750 1819 4750 
Q 2544 4750 2975 4387 
Q 3406 4025 3406 3419 
Q 3406 3131 3298 2873 
Q 3191 2616 2906 2266 
Q 2828 2175 2409 1742 
Q 1991 1309 1228 531 
z
" transform="scale(0.015625)"/>
        <path id="DejaVuSans-35" d="M 691 4666 
L 3169 4666 
L 3169 4134 
L 1269 4134 
L 1269 2991 
Q 1406 3038 1543 3061 
Q 1681 3084 1819 3084 
Q 2600 3084 3056 2656 
Q 3513 2228 3513 1497 
Q 3513 744 3044 326 
Q 2575 -91 1722 -91 
Q 1428 -91 1123 -41 
Q 819 9 494 109 
L 494 744 
Q 775 591 1075 516 
Q 1375 441 1709 441 
Q 2250 441 2565 725 
Q 2881 1009 2881 1497 
Q 2881 1984 2565 2268 
Q 2250 2553 1709 2553 
Q 1456 2553 1204 2497 
Q 953 2441 691 2322 
L 691 4666 
z
" transform="scale(0.015625)"/>
       </defs>
       <use xlink:href="#DejaVuSans-30"/>
       <use xlink:href="#DejaVuSans-2e" x="63.623047"/>
       <use xlink:href="#DejaVuSans-30" x="95.410156"/>
       <use xlink:href="#DejaVuSans-32" x="159.033203"/>
       <use xlink:href="#DejaVuSans-35" x="222.65625"/>
      </g>
     </g>
    </g>
    <g id="ytick_3">
     <g id="line2d_6">
      <g>
       <use xlink:href="#md37f72de0c" x="49.30625" y="469.868604" style="stroke: #000000; stroke-width: 0.8"/>
      </g>
     </g>
     <g id="text_6">
      <!-- 0.050 -->
      <g transform="translate(13.678125 473.667822) scale(0.1 -0.1)">
       <use xlink:href="#DejaVuSans-30"/>
       <use xlink:href="#DejaVuSans-2e" x="63.623047"/>
       <use xlink:href="#DejaVuSans-30" x="95.410156"/>
       <use xlink:href="#DejaVuSans-35" x="159.033203"/>
       <use xlink:href="#DejaVuSans-30" x="222.65625"/>
      </g>
     </g>
    </g>
    <g id="ytick_4">
     <g id="line2d_7">
      <g>
       <use xlink:href="#md37f72de0c" x="49.30625" y="379.47676" style="stroke: #000000; stroke-width: 0.8"/>
      </g>
     </g>
     <g id="text_7">
      <!-- 0.075 -->
      <g transform="translate(13.678125 383.275979) scale(0.1 -0.1)">
       <defs>
        <path id="DejaVuSans-37" d="M 525 4666 
L 3525 4666 
L 3525 4397 
L 1831 0 
L 1172 0 
L 2766 4134 
L 525 4134 
L 525 4666 
z
" transform="scale(0.015625)"/>
       </defs>
       <use xlink:href="#DejaVuSans-30"/>
       <use xlink:href="#DejaVuSans-2e" x="63.623047"/>
       <use xlink:href="#DejaVuSans-30" x="95.410156"/>
       <use xlink:href="#DejaVuSans-37" x="159.033203"/>
       <use xlink:href="#DejaVuSans-35" x="222.65625"/>
      </g>
     </g>
    </g>
    <g id="ytick_5">
     <g id="line2d_8">
      <g>
       <use xlink:href="#md37f72de0c" x="49.30625" y="289.084917" style="stroke: #000000; stroke-width: 0.8"/>
      </g>
     </g>
     <g id="text_8">
      <!-- 0.100 -->
      <g transform="translate(13.678125 292.884136) scale(0.1 -0.1)">
       <defs>
        <path id="DejaVuSans-31" d="M 794 531 
L 1825 531 
L 1825 4091 
L 703 3866 
L 703 4441 
L 1819 4666 
L 2450 4666 
L 2450 531 
L 3481 531 
L 3481 0 
L 794 0 
L 794 531 
z
" transform="scale(0.015625)"/>
       </defs>
       <use xlink:href="#DejaVuSans-30"/>
       <use xlink:href="#DejaVuSans-2e" x="63.623047"/>
       <use xlink:href="#DejaVuSans-31" x="95.410156"/>
       <use xlink:href="#DejaVuSans-30" x="159.033203"/>
       <use xlink:href="#DejaVuSans-30" x="222.65625"/>
      </g>
     </g>
    </g>
    <g id="ytick_6">
     <g id="line2d_9">
      <g>
       <use xlink:href="#md37f72de0c" x="49.30625" y="198.693073" style="stroke: #000000; stroke-width: 0.8"/>
      </g>
     </g>
     <g id="text_9">
      <!-- 0.125 -->
      <g transform="translate(13.678125 202.492292) scale(0.1 -0.1)">
       <use xlink:href="#DejaVuSans-30"/>
       <use xlink:href="#DejaVuSans-2e" x="63.623047"/>
       <use xlink:href="#DejaVuSans-31" x="95.410156"/>
       <use xlink:href="#DejaVuSans-32" x="159.033203"/>
       <use xlink:href="#DejaVuSans-35" x="222.65625"/>
      </g>
     </g>
    </g>
    <g id="ytick_7">
     <g id="line2d_10">
      <g>
       <use xlink:href="#md37f72de0c" x="49.30625" y="108.30123" style="stroke: #000000; stroke-width: 0.8"/>
      </g>
     </g>
     <g id="text_10">
      <!-- 0.150 -->
      <g transform="translate(13.678125 112.100449) scale(0.1 -0.1)">
       <use xlink:href="#DejaVuSans-30"/>
       <use xlink:href="#DejaVuSans-2e" x="63.623047"/>
       <use xlink:href="#DejaVuSans-31" x="95.410156"/>
       <use xlink:href="#DejaVuSans-35" x="159.033203"/>
       <use xlink:href="#DejaVuSans-30" x="222.65625"/>
      </g>
     </g>
    </g>
    <g id="ytick_8">
     <g id="line2d_11">
      <g>
       <use xlink:href="#md37f72de0c" x="49.30625" y="17.909387" style="stroke: #000000; stroke-width: 0.8"/>
      </g>
     </g>
     <g id="text_11">
      <!-- 0.175 -->
      <g transform="translate(13.678125 21.708605) scale(0.1 -0.1)">
       <use xlink:href="#DejaVuSans-30"/>
       <use xlink:href="#DejaVuSans-2e" x="63.623047"/>
       <use xlink:href="#DejaVuSans-31" x="95.410156"/>
       <use xlink:href="#DejaVuSans-37" x="159.033203"/>
       <use xlink:href="#DejaVuSans-35" x="222.65625"/>
      </g>
     </g>
    </g>
    <g id="text_12">
     <!-- Ratio -->
     <g transform="translate(7.598438 353.494375) rotate(-90) scale(0.1 -0.1)">
      <use xlink:href="#DejaVuSans-52"/>
      <use xlink:href="#DejaVuSans-61" x="67.232422"/>
      <use xlink:href="#DejaVuSans-74" x="128.511719"/>
      <use xlink:href="#DejaVuSans-69" x="167.720703"/>
      <use xlink:href="#DejaVuSans-6f" x="195.503906"/>
     </g>
    </g>
   </g>
   <g id="patch_3">
    <path d="M 70.935583 640.574575 
L 243.97025 640.574575 
L 243.97025 459.147159 
L 70.935583 459.147159 
L 70.935583 640.574575 
z
" clip-path="url(#p0bf2e561da)" style="fill: #3274a1; stroke: #3d3d3d; stroke-linejoin: miter"/>
   </g>
   <g id="line2d_12">
    <path d="M 157.452917 640.574575 
L 157.452917 650.350909 
" clip-path="url(#p0bf2e561da)" style="fill: none; stroke: #3d3d3d"/>
   </g>
   <g id="line2d_13">
    <path d="M 157.452917 459.147159 
L 157.452917 195.842125 
" clip-path="url(#p0bf2e561da)" style="fill: none; stroke: #3d3d3d"/>
   </g>
   <g id="line2d_14">
    <path d="M 114.19425 650.350909 
L 200.711583 650.350909 
" clip-path="url(#p0bf2e561da)" style="fill: none; stroke: #3d3d3d; stroke-linecap: square"/>
   </g>
   <g id="line2d_15">
    <path d="M 114.19425 195.842125 
L 200.711583 195.842125 
" clip-path="url(#p0bf2e561da)" style="fill: none; stroke: #3d3d3d; stroke-linecap: square"/>
   </g>
   <g id="line2d_16"/>
   <g id="patch_4">
    <path d="M 287.228917 624.477689 
L 460.263583 624.477689 
L 460.263583 445.55776 
L 287.228917 445.55776 
L 287.228917 624.477689 
z
" clip-path="url(#p0bf2e561da)" style="fill: #e1812c; stroke: #3d3d3d; stroke-linejoin: miter"/>
   </g>
   <g id="line2d_17">
    <path d="M 373.74625 624.477689 
L 373.74625 649.577247 
" clip-path="url(#p0bf2e561da)" style="fill: none; stroke: #3d3d3d"/>
   </g>
   <g id="line2d_18">
    <path d="M 373.74625 445.55776 
L 373.74625 248.79782 
" clip-path="url(#p0bf2e561da)" style="fill: none; stroke: #3d3d3d"/>
   </g>
   <g id="line2d_19">
    <path d="M 330.487583 649.577247 
L 417.004917 649.577247 
" clip-path="url(#p0bf2e561da)" style="fill: none; stroke: #3d3d3d; stroke-linecap: square"/>
   </g>
   <g id="line2d_20">
    <path d="M 330.487583 248.79782 
L 417.004917 248.79782 
" clip-path="url(#p0bf2e561da)" style="fill: none; stroke: #3d3d3d; stroke-linecap: square"/>
   </g>
   <g id="line2d_21">
    <defs>
     <path id="m799c727530" d="M 0 3 
C 0.795609 3 1.55874 2.683901 2.12132 2.12132 
C 2.683901 1.55874 3 0.795609 3 0 
C 3 -0.795609 2.683901 -1.55874 2.12132 -2.12132 
C 1.55874 -2.683901 0.795609 -3 0 -3 
C -0.795609 -3 -1.55874 -2.683901 -2.12132 -2.12132 
C -2.683901 -1.55874 -3 -0.795609 -3 0 
C -3 0.795609 -2.683901 1.55874 -2.12132 2.12132 
C -1.55874 2.683901 -0.795609 3 0 3 
z
" style="stroke: #3d3d3d"/>
    </defs>
    <g clip-path="url(#p0bf2e561da)">
     <use xlink:href="#m799c727530" x="373.74625" y="141.686271" style="fill-opacity: 0; stroke: #3d3d3d"/>
    </g>
   </g>
   <g id="patch_5">
    <path d="M 503.52225 615.256748 
L 676.556917 615.256748 
L 676.556917 434.329497 
L 503.52225 434.329497 
L 503.52225 615.256748 
z
" clip-path="url(#p0bf2e561da)" style="fill: #3a923a; stroke: #3d3d3d; stroke-linejoin: miter"/>
   </g>
   <g id="line2d_22">
    <path d="M 590.039583 615.256748 
L 590.039583 649.570239 
" clip-path="url(#p0bf2e561da)" style="fill: none; stroke: #3d3d3d"/>
   </g>
   <g id="line2d_23">
    <path d="M 590.039583 434.329497 
L 590.039583 248.79782 
" clip-path="url(#p0bf2e561da)" style="fill: none; stroke: #3d3d3d"/>
   </g>
   <g id="line2d_24">
    <path d="M 546.780917 649.570239 
L 633.29825 649.570239 
" clip-path="url(#p0bf2e561da)" style="fill: none; stroke: #3d3d3d; stroke-linecap: square"/>
   </g>
   <g id="line2d_25">
    <path d="M 546.780917 248.79782 
L 633.29825 248.79782 
" clip-path="url(#p0bf2e561da)" style="fill: none; stroke: #3d3d3d; stroke-linecap: square"/>
   </g>
   <g id="line2d_26">
    <g clip-path="url(#p0bf2e561da)">
     <use xlink:href="#m799c727530" x="590.039583" y="30.969091" style="fill-opacity: 0; stroke: #3d3d3d"/>
    </g>
   </g>
   <g id="line2d_27">
    <path d="M 70.935583 622.071522 
L 243.97025 622.071522 
" clip-path="url(#p0bf2e561da)" style="fill: none; stroke: #3d3d3d"/>
   </g>
   <g id="line2d_28">
    <path d="M 287.228917 554.835802 
L 460.263583 554.835802 
" clip-path="url(#p0bf2e561da)" style="fill: none; stroke: #3d3d3d"/>
   </g>
   <g id="line2d_29">
    <path d="M 503.52225 501.588546 
L 676.556917 501.588546 
" clip-path="url(#p0bf2e561da)" style="fill: none; stroke: #3d3d3d"/>
   </g>
   <g id="patch_6">
    <path d="M 49.30625 681.32 
L 49.30625 0 
" style="fill: none; stroke: #000000; stroke-width: 0.8; stroke-linejoin: miter; stroke-linecap: square"/>
   </g>
   <g id="patch_7">
    <path d="M 698.18625 681.32 
L 698.18625 0 
" style="fill: none; stroke: #000000; stroke-width: 0.8; stroke-linejoin: miter; stroke-linecap: square"/>
   </g>
   <g id="patch_8">
    <path d="M 49.30625 681.32 
L 698.18625 681.32 
" style="fill: none; stroke: #000000; stroke-width: 0.8; stroke-linejoin: miter; stroke-linecap: square"/>
   </g>
   <g id="patch_9">
    <path d="M 49.30625 0 
L 698.18625 0 
" style="fill: none; stroke: #000000; stroke-width: 0.8; stroke-linejoin: miter; stroke-linecap: square"/>
   </g>
  </g>
 </g>
 <defs>
  <clipPath id="p0bf2e561da">
   <rect x="49.30625" y="0" width="648.88" height="681.32"/>
  </clipPath>
 </defs>
</svg>
